<svg width="167" height="160" viewBox="0 0 167 160" fill="none" xmlns="http://www.w3.org/2000/svg">
<g clip-path="url(#clip0_207_351)">
<g opacity="0.9">
<path opacity="0.9" d="M4.38887 9.08392C5.22751 7.02636 4.68243 4.49298 3.20084 3.56918C2.66366 3.28642 2.04165 3.20987 1.45215 3.35423C0.862652 3.49859 0.346259 3.85365 0 4.35275V11.1975L0.139738 11.2956C1.62132 12.1774 3.55024 11.1415 4.38887 9.08392Z" fill="white"/>
<path opacity="0.9" d="M17.6951 2.15566C19.2186 3.3454 20.9097 2.63138 21.2452 0.573816C21.2666 0.383121 21.2666 0.190756 21.2452 6.10352e-05H16.1575C16.4758 0.839292 17.0056 1.58189 17.6951 2.15566Z" fill="white"/>
<path opacity="0.9" d="M15.9619 16.6425C16.3711 15.7293 16.4711 14.707 16.2465 13.7317C16.0219 12.7563 15.4852 11.8815 14.7181 11.2398C13.1946 10.1761 11.3216 11.0019 10.5249 12.9614C10.0862 13.8412 9.96198 14.8449 10.1731 15.8053C10.3842 16.7656 10.9179 17.6245 11.685 18.2383C12.0638 18.4512 12.4843 18.5786 12.9174 18.6122C13.3504 18.6458 13.7857 18.5846 14.1928 18.4328C14.5998 18.2809 14.9688 18.0421 15.2743 17.7329C15.5799 17.4238 15.8145 17.0516 15.9619 16.6425Z" fill="white"/>
<path opacity="0.9" d="M4.10911 33.0747C5.00128 33.3618 5.96815 33.3075 6.82266 32.9223C7.67716 32.5371 8.3587 31.8483 8.73565 30.9892C9.25024 30.2037 9.44163 29.2497 9.2697 28.3261C9.09776 27.4026 8.57577 26.5812 7.81311 26.0342C6.28959 25.1804 4.26286 26.1322 3.24252 28.1338C2.22219 30.1353 2.58559 32.3469 4.10911 33.0747Z" fill="white"/>
<path opacity="0.9" d="M0 41.1371V46.6382C0.268975 46.3207 0.507646 45.9783 0.712853 45.6161C1.70524 43.7685 1.38375 41.809 0 41.1371Z" fill="white"/>
<path opacity="0.9" d="M29.464 11.6874C31.0155 12.9472 32.7347 12.4572 33.1261 10.6096C33.2202 9.53126 33.0593 8.44589 32.6562 7.4415C32.253 6.43711 31.6192 5.54216 30.806 4.82902C29.2405 3.42931 27.8706 3.89118 27.5072 5.83676C27.3381 6.89772 27.4278 7.98407 27.7686 9.00284C28.1093 10.0216 28.691 10.9425 29.464 11.6874Z" fill="white"/>
<path opacity="0.9" d="M26.4587 19.7497C26.1157 19.488 25.7172 19.3093 25.2938 19.2276C24.8705 19.1458 24.4339 19.1633 24.0184 19.2785C23.6029 19.3937 23.2197 19.6037 22.8987 19.8919C22.5776 20.18 22.3274 20.5386 22.1677 20.9396C21.7463 21.7792 21.6344 22.7408 21.8517 23.655C22.0691 24.5691 22.6017 25.3773 23.3558 25.9366C23.7062 26.1833 24.1057 26.3511 24.5269 26.4291C24.9481 26.507 25.381 26.493 25.7963 26.3881C26.2116 26.2831 26.5995 26.0896 26.9333 25.8208C27.2671 25.552 27.5391 25.2145 27.7306 24.8308C28.125 23.9649 28.2139 22.9904 27.9828 22.0673C27.7517 21.1442 27.2143 20.327 26.4587 19.7497Z" fill="white"/>
<path opacity="0.9" d="M15.8362 38.8977C16.6684 39.2407 17.5963 39.2709 18.4491 38.9828C19.3018 38.6948 20.022 38.1076 20.4767 37.3299C20.7222 36.9694 20.8927 36.5632 20.9778 36.1352C21.063 35.7073 21.0611 35.2663 20.9724 34.8391C20.8837 34.4119 20.7098 34.007 20.4614 33.6485C20.2129 33.2901 19.8949 32.9855 19.5262 32.7529C18.7104 32.35 17.7684 32.2874 16.9065 32.5786C16.0446 32.8698 15.333 33.4913 14.9276 34.3067C14.67 34.6623 14.4886 35.0674 14.3946 35.4966C14.3006 35.9257 14.296 36.3696 14.3813 36.8006C14.4666 37.2316 14.6399 37.6402 14.8903 38.0011C15.1406 38.3619 15.4626 38.6673 15.8362 38.8977Z" fill="white"/>
<path opacity="0.9" d="M6.94657 47.8979C5.91226 49.6756 6.34563 51.5372 7.8971 52.0971C8.78597 52.2874 9.71217 52.1893 10.5415 51.8168C11.3709 51.4443 12.0602 50.8168 12.5095 50.0255C12.7789 49.7091 12.9718 49.3345 13.073 48.9313C13.1743 48.5281 13.1811 48.1071 13.0932 47.7008C13.0053 47.2944 12.825 46.9139 12.5661 46.5888C12.3073 46.2637 11.9769 46.0028 11.6009 45.8264C10.7056 45.5814 9.75315 45.6536 8.90496 46.0311C8.05676 46.4086 7.36495 47.0682 6.94657 47.8979Z" fill="white"/>
<path opacity="0.9" d="M5.21346 62.7347C6.0521 61.0831 5.52095 59.4172 3.98346 59.0253C3.19907 58.9197 2.40093 59.0447 1.68622 59.3851C0.971515 59.7256 0.371065 60.267 -0.0419922 60.9431V64.7782C0.246079 65.0197 0.593608 65.179 0.964328 65.2399C1.84232 65.3004 2.71817 65.0935 3.47654 64.6463C4.23492 64.1992 4.84038 63.5329 5.21346 62.7347Z" fill="white"/>
<path opacity="0.9" d="M0 73.3163V75.9759C0.0704698 75.818 0.126598 75.6539 0.16772 75.4859C0.393935 74.7682 0.33383 73.9906 0 73.3163Z" fill="white"/>
<path opacity="0.9" d="M42.9519 8.53789C44.5593 9.9376 45.7474 9.76961 45.2861 8.15995C44.5236 6.05775 43.2335 4.18763 41.5402 2.72927C39.8769 1.32956 38.8706 1.32947 39.3598 2.98112C40.0852 5.09978 41.3186 7.00779 42.9519 8.53789Z" fill="white"/>
<path opacity="0.9" d="M41.3584 21.3735C42.9099 22.6052 44.6571 22.2412 45.0764 20.6036C45.1836 19.5972 45.0362 18.58 44.6478 17.6456C44.2595 16.7112 43.6427 15.8896 42.8541 15.2566C41.2886 13.9269 39.8489 14.2208 39.4436 15.9565C39.2718 16.948 39.3578 17.9671 39.6932 18.9158C40.0285 19.8645 40.602 20.711 41.3584 21.3735Z" fill="white"/>
<path opacity="0.9" d="M39.5694 33.0049C39.9636 32.2161 40.0547 31.3099 39.8254 30.4583C39.596 29.6068 39.0622 28.8694 38.3255 28.3861C37.9988 28.1241 37.6197 27.9357 37.2137 27.8339C36.8077 27.7321 36.3845 27.7192 35.9731 27.7963C35.5617 27.8734 35.1718 28.0387 34.83 28.2805C34.4881 28.5224 34.2025 28.8351 33.9925 29.1977C33.5758 29.966 33.4654 30.8641 33.6832 31.7108C33.9011 32.5574 34.4312 33.2898 35.1668 33.7608C35.5041 34.0043 35.8865 34.1781 36.2917 34.272C36.6968 34.3659 37.1166 34.3779 37.5264 34.3075C37.9363 34.2372 38.328 34.0859 38.6788 33.8623C39.0296 33.6386 39.3323 33.347 39.5694 33.0049Z" fill="white"/>
<path opacity="0.9" d="M32.2872 43.6568C32.5254 43.3381 32.6909 42.9709 32.7716 42.5811C32.8523 42.1912 32.8464 41.7884 32.7544 41.4011C32.6623 41.0138 32.4865 40.6513 32.2391 40.3397C31.9917 40.028 31.6789 39.7749 31.3229 39.5978C30.5544 39.1793 29.6578 39.0621 28.8077 39.2691C27.9577 39.476 27.2151 39.9921 26.7243 40.7173C26.4768 41.0342 26.3027 41.4023 26.2146 41.7947C26.1266 42.1872 26.1267 42.5946 26.215 42.987C26.3033 43.3795 26.4775 43.7474 26.7251 44.0641C26.9728 44.3809 27.2876 44.6386 27.6468 44.8187C28.4393 45.1686 29.3255 45.2443 30.1657 45.034C31.0059 44.8236 31.7524 44.339 32.2872 43.6568Z" fill="white"/>
<path opacity="0.9" d="M19.7499 55.9881C20.5944 56.1989 21.4821 56.156 22.3024 55.8647C23.1227 55.5735 23.8391 55.0467 24.3623 54.3502C24.6078 54.0724 24.7817 53.7387 24.8684 53.378C24.9551 53.0173 24.9519 52.641 24.8595 52.2818C24.7671 51.9225 24.588 51.5912 24.3381 51.3174C24.0881 51.0436 23.775 50.8356 23.4259 50.7112C22.5809 50.4354 21.669 50.4432 20.8289 50.7337C19.9889 51.0243 19.2664 51.5815 18.7714 52.3207C18.5203 52.6013 18.343 52.9402 18.2555 53.3066C18.1679 53.673 18.173 54.0556 18.2701 54.4196C18.3672 54.7836 18.5533 55.1176 18.8117 55.3914C19.07 55.6653 19.3926 55.8703 19.7499 55.9881Z" fill="white"/>
<path opacity="0.9" d="M17.1641 65.2401C17.3746 64.9617 17.5107 64.6344 17.5599 64.2887C17.6091 63.943 17.5697 63.5901 17.4453 63.2639C17.3208 62.9377 17.1156 62.6488 16.8488 62.4239C16.582 62.1991 16.2624 62.046 15.9201 61.979C15.0635 61.8318 14.1824 61.9545 13.3987 62.3306C12.6149 62.7068 11.9673 63.3177 11.5452 64.0786C11.3301 64.3688 11.1946 64.71 11.1521 65.0689C11.1096 65.4278 11.1615 65.7916 11.3028 66.1241C11.4441 66.4567 11.6699 66.7466 11.9576 66.9648C12.2453 67.1829 12.585 67.3216 12.9429 67.3677C13.7759 67.4532 14.6159 67.2983 15.3639 66.9214C16.1118 66.5444 16.7365 65.961 17.1641 65.2401Z" fill="white"/>
<path opacity="0.9" d="M12.1042 76.4656C12.2305 76.1456 12.2794 75.8001 12.247 75.4575C12.2147 75.1149 12.1019 74.7852 11.9179 74.4946C11.734 74.2039 11.4841 73.9607 11.1885 73.7851C10.8929 73.6096 10.5601 73.5067 10.2172 73.4844C9.40388 73.439 8.59825 73.6623 7.92402 74.12C7.24979 74.5777 6.74438 75.2446 6.48535 76.018C6.36494 76.3542 6.32649 76.7143 6.37342 77.0684C6.42036 77.4225 6.55127 77.7601 6.7551 78.0533C6.95893 78.3464 7.22989 78.5865 7.54525 78.7535C7.86061 78.9204 8.21124 79.0096 8.56795 79.0132C9.35207 79.0237 10.1189 78.7818 10.7555 78.3232C11.3921 77.8646 11.8648 77.2134 12.1042 76.4656Z" fill="white"/>
<path opacity="0.9" d="M10.6226 88.1393C10.5825 87.4099 10.2751 86.7209 9.75929 86.2044C9.2435 85.6879 8.55552 85.3801 7.82719 85.3398C7.08579 85.3398 6.37479 85.6347 5.85055 86.1596C5.3263 86.6846 5.03174 87.3968 5.03174 88.1393C5.06083 88.8534 5.37129 89.5269 5.89525 90.0122C6.4192 90.4976 7.11394 90.7554 7.82719 90.7288C8.53365 90.7308 9.21474 90.4646 9.73336 89.9842C10.252 89.5038 10.5696 88.8447 10.6226 88.1393Z" fill="white"/>
<path opacity="0.9" d="M3.92748 99.0709C3.8543 99.3846 3.85958 99.7114 3.94267 100.023C4.02576 100.334 4.1841 100.62 4.40385 100.855C4.62361 101.09 4.89798 101.268 5.20253 101.372C5.50708 101.476 5.83252 101.503 6.14998 101.45C6.89893 101.411 7.61741 101.141 8.20767 100.677C8.79792 100.214 9.23125 99.5796 9.44859 98.8608C9.74211 97.4611 8.67981 96.4253 7.14231 96.4533C6.39385 96.4757 5.67348 96.744 5.09248 97.2171C4.51148 97.6901 4.10207 98.3417 3.92748 99.0709Z" fill="white"/>
<path opacity="0.9" d="M3.13074 111.71C3.89128 111.563 4.60396 111.23 5.206 110.742C5.80804 110.254 6.28091 109.625 6.58308 108.911C7.03035 107.637 6.14979 106.713 4.6682 106.867C3.89853 106.982 3.17405 107.302 2.57128 107.795C1.9685 108.288 1.50989 108.934 1.24385 109.667C0.83851 111.052 1.66313 111.948 3.13074 111.71Z" fill="white"/>
<path opacity="0.9" d="M2.96317 118.555C3.43839 117.337 2.68368 116.623 1.27198 116.959C0.819663 117.08 0.389999 117.274 0 117.533V121.354C1.28634 120.8 2.33581 119.808 2.96317 118.555Z" fill="white"/>
<path opacity="0.9" d="M2.83744 155.647C2.51153 155.235 2.07652 154.924 1.58218 154.748C1.08785 154.572 0.554123 154.539 0.0419922 154.653V160H3.13091C3.63976 159.371 3.89223 158.573 3.83779 157.766C3.78334 156.958 3.42607 156.201 2.83744 155.647Z" fill="white"/>
<path opacity="0.9" d="M53.1832 6.66263C55.0422 7.96435 56.1184 7.50245 55.4475 5.61285C54.4236 3.35526 52.8049 1.41968 50.7651 0.0140381H48.4031C48.4166 0.362168 48.4972 0.704341 48.6406 1.02178C49.6609 3.25227 51.2226 5.19152 53.1832 6.66263Z" fill="white"/>
<path opacity="0.9" d="M55.9091 19.3576C57.6562 20.7573 59.04 20.5473 58.7045 19.0216C58.0125 16.8923 56.6857 15.0265 54.9027 13.675C53.0857 12.2753 51.8836 12.4713 52.233 14.0249C52.8991 16.1303 54.1794 17.9874 55.9091 19.3576Z" fill="white"/>
<path opacity="0.9" d="M53.7983 30.8637C55.4755 32.0535 57.3625 31.8294 57.8377 30.3877C58.3129 28.946 57.1947 26.7625 55.4895 25.4887C53.7842 24.215 52.2049 24.355 51.7437 25.8947C51.5791 26.8329 51.685 27.7983 52.0489 28.6784C52.4128 29.5584 53.0196 30.3167 53.7983 30.8637Z" fill="white"/>
<path opacity="0.9" d="M52.0792 40.9975C52.9877 39.7937 52.3308 37.9181 50.6814 36.7984C50.0047 36.2737 49.1522 36.0304 48.3009 36.119C47.4497 36.2076 46.6653 36.6212 46.1109 37.274C45.9114 37.6307 45.7892 38.0254 45.7522 38.4325C45.7152 38.8396 45.7642 39.2502 45.896 39.6371C46.0279 40.0239 46.2396 40.3785 46.5174 40.678C46.7953 40.9775 47.133 41.2153 47.5086 41.3754C48.1995 41.843 49.0292 42.0603 49.8602 41.9915C50.6913 41.9228 51.4741 41.5722 52.0792 40.9975Z" fill="white"/>
<path opacity="0.9" d="M43.5252 46.2883C42.7614 45.8719 41.8827 45.7162 41.0226 45.8451C40.1624 45.9739 39.3677 46.3798 38.7589 47.0018C38.5177 47.2845 38.3505 47.6231 38.2725 47.9866C38.1945 48.3502 38.2082 48.7273 38.3123 49.0843C38.4163 49.4412 38.6075 49.7667 38.8685 50.0312C39.1295 50.2957 39.452 50.4908 39.8072 50.5991C40.5953 50.955 41.4699 51.0731 42.3239 50.9388C43.1779 50.8046 43.9741 50.4238 44.6153 49.8432C45.6496 48.7095 45.1466 47.1701 43.5252 46.2883Z" fill="white"/>
<path opacity="0.9" d="M31.8679 59.8514C32.6979 60.0707 33.5704 60.0711 34.4007 59.8528C35.231 59.6345 35.9908 59.2048 36.6062 58.6055C37.6265 57.4438 37.1653 56.0581 35.5579 55.4702C34.7341 55.1812 33.8441 55.1399 32.9972 55.3513C32.1503 55.5627 31.3836 56.0177 30.7918 56.6601C30.5532 56.9113 30.3876 57.223 30.313 57.5615C30.2384 57.9001 30.2575 58.2525 30.3683 58.5809C30.479 58.9093 30.6773 59.2014 30.9416 59.4253C31.2059 59.6492 31.5261 59.7965 31.8679 59.8514Z" fill="white"/>
<path opacity="0.9" d="M25.0054 69.4391C25.8184 69.5471 26.6453 69.4412 27.405 69.1319C28.1648 68.8227 28.8311 68.3208 29.3383 67.6755C30.177 66.4578 29.6179 65.212 27.9406 64.8761C27.1143 64.7111 26.2582 64.784 25.4716 65.0863C24.6849 65.3885 23.9998 65.9079 23.4958 66.584C23.2953 66.8556 23.1755 67.1781 23.1503 67.5149C23.125 67.8517 23.1954 68.189 23.3531 68.4874C23.5109 68.7859 23.7498 69.0336 24.0421 69.202C24.3344 69.3704 24.6685 69.4525 25.0054 69.4391Z" fill="white"/>
<path opacity="0.9" d="M24.1805 77.4037C24.2977 77.1007 24.3372 76.7731 24.2955 76.4509C24.2538 76.1288 24.1322 75.8221 23.9418 75.559C23.7514 75.296 23.4984 75.0849 23.2056 74.945C22.9128 74.805 22.5896 74.7408 22.2657 74.758C21.4804 74.6803 20.6908 74.854 20.0102 75.2539C19.3296 75.6537 18.7932 76.2594 18.4779 76.9837C18.3743 77.3058 18.3512 77.6483 18.4105 77.9815C18.4697 78.3147 18.6095 78.6284 18.8178 78.8949C19.026 79.1615 19.2963 79.3726 19.605 79.5104C19.9137 79.6481 20.2513 79.7081 20.5885 79.685C21.348 79.7164 22.0989 79.5145 22.7408 79.1068C23.3828 78.6991 23.8851 78.1051 24.1805 77.4037Z" fill="white"/>
<path opacity="0.9" d="M22.5172 88.1393C22.4848 87.4189 22.176 86.7388 21.6552 86.2407C21.1344 85.7427 20.4418 85.4653 19.7217 85.466C19.3617 85.4529 19.0026 85.5122 18.6657 85.6403C18.3289 85.7684 18.0212 85.9628 17.7606 86.212C17.5 86.4612 17.2921 86.7599 17.1488 87.0909C17.0055 87.422 16.9298 87.7785 16.9263 88.1393C16.9388 88.4923 17.0214 88.8394 17.1692 89.1601C17.3171 89.4808 17.5273 89.7687 17.7876 90.0072C18.0478 90.2457 18.3528 90.4297 18.6849 90.5488C19.0169 90.6679 19.3695 90.7197 19.7217 90.7009C20.4237 90.7034 21.1009 90.4411 21.6188 89.9665C22.1368 89.492 22.4575 88.8398 22.5172 88.1393Z" fill="white"/>
<path opacity="0.9" d="M17.7929 100.821C18.5288 100.797 19.2416 100.557 19.8429 100.132C20.4442 99.7065 20.9076 99.1139 21.1754 98.4271C21.4969 97.1814 20.4626 96.1595 18.9251 96.1875C18.1923 96.2007 17.482 96.4443 16.8951 96.8839C16.3081 97.3235 15.8741 97.9367 15.6543 98.6369C15.3608 99.9387 16.2973 100.905 17.7929 100.821Z" fill="white"/>
<path opacity="0.9" d="M17.9049 107.469C18.408 106.364 17.5975 105.566 16.1019 105.734C15.3581 105.824 14.6474 106.094 14.0313 106.52C13.4151 106.947 12.9121 107.518 12.5656 108.183C12.0904 109.373 12.8591 110.129 14.3128 109.891C15.0504 109.77 15.7534 109.491 16.3734 109.073C16.9934 108.656 17.5157 108.108 17.9049 107.469Z" fill="white"/>
<path opacity="0.9" d="M13.6836 115.532C14.2567 114.538 13.5577 113.992 12.146 114.328C10.6809 114.717 9.42033 115.654 8.62372 116.945C8.10656 118.051 8.80557 118.555 10.1753 118.121C11.5961 117.665 12.8285 116.756 13.6836 115.532Z" fill="white"/>
<path opacity="0.9" d="M6.40146 125.735C7.68049 125.089 8.77285 124.125 9.57432 122.936C10.0635 122.012 9.40667 121.704 8.07883 122.25C6.71348 122.832 5.57492 123.845 4.83601 125.133C4.40272 126.113 5.11555 126.393 6.40146 125.735Z" fill="white"/>
<path opacity="0.9" d="M4.90588 129.584C3.64719 130.279 2.68343 131.408 2.19421 132.762C1.98455 133.867 2.80928 134.078 4.01132 133.21C5.19882 132.339 6.10316 131.136 6.61107 129.752C6.84868 128.801 6.14986 128.814 4.90588 129.584Z" fill="white"/>
<path opacity="0.9" d="M4.58451 142C5.10181 141.491 5.49656 140.872 5.73876 140.188C5.98096 139.504 6.06423 138.773 5.98223 138.052C5.74462 136.933 4.78012 136.835 3.63398 137.815C3.04981 138.276 2.58588 138.872 2.28164 139.552C1.97741 140.232 1.84191 140.976 1.88683 141.72C2.16637 142.91 3.46633 143.049 4.58451 142Z" fill="white"/>
<path opacity="0.9" d="M11.4892 151.56C12.0024 150.938 12.2617 150.146 12.2151 149.341C12.1684 148.536 11.8193 147.778 11.2377 147.221C11.0163 146.925 10.7348 146.681 10.4118 146.503C10.0888 146.325 9.73162 146.218 9.36416 146.189C8.9967 146.16 8.6273 146.209 8.28038 146.334C7.93347 146.459 7.61703 146.656 7.35203 146.913C6.80654 147.492 6.50269 148.258 6.50269 149.054C6.50269 149.85 6.80654 150.617 7.35203 151.196C7.85434 151.791 8.57085 152.162 9.34574 152.231C10.1206 152.299 10.8911 152.058 11.4892 151.56Z" fill="white"/>
<path opacity="0.9" d="M15.6404 157.746C15.0603 158.365 14.7143 159.167 14.6621 160.014H19.4004C19.3388 159.678 19.2402 159.349 19.1068 159.034C18.352 157.172 16.7446 156.669 15.6404 157.746Z" fill="white"/>
<path opacity="0.9" d="M63.722 6.10352e-05H62.0168C62.8135 0.33599 63.4006 0.321993 63.722 6.10352e-05Z" fill="white"/>
<path opacity="0.9" d="M69.8441 13.927C68.9846 11.6494 67.3582 9.74334 65.2455 8.53805C63.3726 7.57225 62.4502 8.35611 63.0931 10.3157C63.929 12.559 65.4754 14.4667 67.496 15.7467C69.355 16.7685 70.4591 15.9426 69.8441 13.927Z" fill="white"/>
<path opacity="0.9" d="M68.9495 23.1933C67.1325 22.1155 65.8467 22.5773 66.0563 24.089C66.5245 26.0328 67.74 27.713 69.4387 28.7641C71.1998 29.8279 72.6676 29.4498 72.5278 27.9662C72.2809 26.9712 71.8369 26.0359 71.2222 25.216C70.6076 24.3961 69.8347 23.7084 68.9495 23.1933Z" fill="white"/>
<path opacity="0.9" d="M68.6002 34.4187C66.9089 33.3969 65.2316 33.621 64.7145 34.9787C64.5108 35.7972 64.5942 36.6608 64.9504 37.4252C65.3066 38.1895 65.9141 38.8084 66.6713 39.1779C68.3486 40.1297 70.2635 39.8218 70.8645 38.5481C71.4655 37.2743 70.3054 35.4264 68.6002 34.4187Z" fill="white"/>
<path opacity="0.9" d="M58.7881 44.7345C57.8656 45.8403 58.4247 47.3518 60.0601 48.1077C60.8081 48.4859 61.6493 48.6396 62.4825 48.5502C63.3158 48.4608 64.1054 48.1323 64.7564 47.604C65.7069 46.5822 65.0919 45.0843 63.4286 44.2445C62.7026 43.825 61.8625 43.6466 61.0289 43.7346C60.1953 43.8226 59.4109 44.1727 58.7881 44.7345Z" fill="white"/>
<path opacity="0.9" d="M52.2608 55.5681C53.0637 55.845 53.9206 55.9272 54.7613 55.808C55.602 55.6888 56.4024 55.3715 57.0969 54.8823C58.1592 53.9585 57.684 52.7267 56.0486 52.0829C55.2624 51.7524 54.4035 51.6342 53.5574 51.7398C52.7113 51.8454 51.9077 52.1711 51.2265 52.6847C50.1922 53.7344 50.6395 55.0502 52.2608 55.5681Z" fill="white"/>
<path opacity="0.9" d="M44.1961 63.1263C45.0226 63.2908 45.8744 63.2786 46.6957 63.0905C47.5171 62.9023 48.2895 62.5427 48.9624 62.0349C49.9967 61.0831 49.5493 60.0053 47.9419 59.5574C47.1216 59.3281 46.2584 59.2987 45.4244 59.4716C44.5904 59.6445 43.8099 60.0146 43.1478 60.5511C42.1135 61.5869 42.6027 62.7624 44.1961 63.1263Z" fill="white"/>
<path opacity="0.9" d="M41.5544 69.5651C42.407 68.5433 41.8618 67.5497 40.2684 67.2837C39.4553 67.1509 38.6223 67.2176 37.8408 67.4785C37.0593 67.7394 36.3527 68.1864 35.7818 68.7811C34.9431 69.8869 35.6 70.9786 37.1795 71.1606C37.9813 71.2376 38.7903 71.1345 39.5472 70.8585C40.3041 70.5824 40.9898 70.1405 41.5544 69.5651Z" fill="white"/>
<path opacity="0.9" d="M36.2847 78.0755C36.7879 76.8717 35.9912 75.8778 34.4118 75.7798C33.6455 75.7083 32.875 75.8622 32.1947 76.2227C31.5145 76.5832 30.954 77.1346 30.582 77.8093C30.1068 79.055 31.0852 80.1471 32.6506 80.2031C33.3947 80.2253 34.1299 80.0376 34.7725 79.6614C35.4151 79.2852 35.9391 78.7356 36.2847 78.0755Z" fill="white"/>
<path opacity="0.9" d="M34.4119 88.1394C34.4013 87.7857 34.32 87.4378 34.1727 87.1162C34.0255 86.7946 33.8154 86.5059 33.5547 86.2671C33.2941 86.0282 32.9883 85.8441 32.6554 85.7258C32.3225 85.6074 31.9692 85.557 31.6165 85.5778C30.9079 85.5511 30.2173 85.8051 29.6941 86.2845C29.1709 86.7639 28.8573 87.4302 28.821 88.1394C28.8318 88.485 28.9111 88.825 29.0545 89.1396C29.1978 89.4542 29.4025 89.7368 29.6562 89.9713C29.91 90.2059 30.2078 90.3875 30.5324 90.5055C30.8569 90.6235 31.2016 90.6758 31.5465 90.6589C32.2539 90.6801 32.9429 90.4318 33.4747 89.9642C34.0065 89.4966 34.3415 88.8445 34.4119 88.1394Z" fill="white"/>
<path opacity="0.9" d="M32.9301 97.9932C33.2935 96.8454 32.2733 95.8936 30.7498 95.9216C30.0284 95.9287 29.3252 96.1489 28.7284 96.5548C28.1316 96.9607 27.6678 97.5341 27.3952 98.203C27.0598 99.3927 27.9543 100.261 29.4638 100.177C30.1856 100.164 30.8902 99.9537 31.5012 99.5688C32.1122 99.184 32.6063 98.6392 32.9301 97.9932Z" fill="white"/>
<path opacity="0.9" d="M25.5084 108.057C26.958 107.833 28.2781 107.092 29.2264 105.971C29.7995 105.034 29.0306 104.362 27.549 104.572C26.8205 104.649 26.1171 104.881 25.4855 105.253C24.854 105.625 24.3089 106.128 23.887 106.727C23.3838 107.693 24.0548 108.295 25.5084 108.057Z" fill="white"/>
<path opacity="0.9" d="M24.418 112.536C25.061 111.752 24.418 111.36 23.0203 111.71C21.5982 112.061 20.3191 112.843 19.3583 113.95C18.7433 114.832 19.3583 115.182 20.756 114.734C22.1319 114.299 23.3863 113.546 24.418 112.536Z" fill="white"/>
<path opacity="0.9" d="M16.2975 120.682C17.5359 120.053 18.6603 119.22 19.6241 118.219C20.1971 117.519 19.6241 117.393 18.2263 117.939C16.9141 118.483 15.7498 119.333 14.8298 120.416C14.3546 121.228 14.9976 121.354 16.2975 120.682Z" fill="white"/>
<path opacity="0.9" d="M14.4243 123.664C13.2578 124.328 12.2919 125.295 11.6289 126.463C11.3353 127.331 12.0902 127.359 13.2783 126.463C14.4106 125.673 15.3632 124.653 16.0737 123.468C16.3952 122.754 15.6683 122.894 14.4243 123.664Z" fill="white"/>
<path opacity="0.9" d="M14.6901 130.27C14.5224 129.305 13.6277 129.347 12.4676 130.27C11.9028 130.694 11.441 131.24 11.1167 131.868C10.7923 132.496 10.6139 133.189 10.5947 133.895C10.7904 134.945 11.9926 134.973 13.1527 133.895C13.6503 133.434 14.0446 132.873 14.3096 132.248C14.5747 131.623 14.7044 130.949 14.6901 130.27Z" fill="white"/>
<path opacity="0.9" d="M19.9034 143.134C20.4135 142.511 20.6707 141.719 20.6241 140.915C20.5775 140.111 20.2303 139.354 19.6517 138.794C19.4288 138.501 19.1459 138.26 18.8218 138.086C18.4978 137.912 18.1401 137.809 17.7732 137.786C17.4062 137.762 17.0385 137.817 16.6947 137.948C16.3509 138.078 16.0391 138.281 15.7802 138.542C15.2256 139.095 14.9069 139.842 14.8912 140.625C14.8756 141.408 15.1642 142.167 15.6962 142.742C15.9437 143.048 16.25 143.302 16.5971 143.489C16.9442 143.675 17.3251 143.79 17.7172 143.826C18.1094 143.863 18.5049 143.821 18.8803 143.702C19.2558 143.582 19.6036 143.389 19.9034 143.134Z" fill="white"/>
<path opacity="0.9" d="M24.1246 149.516C23.0204 150.58 22.8665 152.861 23.6493 154.779C24.432 156.697 25.8857 157.578 27.0178 156.543C28.15 155.507 28.4994 152.959 27.6887 150.944C26.878 148.928 25.2288 148.453 24.1246 149.516Z" fill="white"/>
<path opacity="0.9" d="M71.1582 0.237901C72.077 2.5412 73.8573 4.39427 76.12 5.40272C77.9231 5.90661 78.6219 4.339 77.6575 1.95951C77.3614 1.26536 76.9863 0.607942 76.5394 6.10352e-05H71.0603C71.0869 0.081729 71.1197 0.161162 71.1582 0.237901Z" fill="white"/>
<path opacity="0.9" d="M77.2801 17.1745C77.5865 18.2346 78.1204 19.2147 78.8447 20.0464C79.569 20.8781 80.4662 21.5413 81.4733 21.9894C83.2344 22.5633 84.2687 21.2896 83.7236 19.19C83.3971 18.1268 82.8373 17.1501 82.0851 16.3315C81.333 15.5129 80.4077 14.873 79.3767 14.4588C77.5876 13.927 76.6931 15.117 77.2801 17.1745Z" fill="white"/>
<path opacity="0.9" d="M82.6755 29.6598C80.9283 29.0719 79.6284 29.9397 79.6844 31.4234C79.7905 32.2799 80.1314 33.0905 80.6692 33.7649C81.207 34.4394 81.9207 34.9514 82.7313 35.2446C84.4225 35.8464 85.9182 35.0627 85.9182 33.551C85.7986 32.6623 85.4308 31.8255 84.8571 31.1371C84.2834 30.4486 83.5272 29.9366 82.6755 29.6598Z" fill="white"/>
<path opacity="0.9" d="M83.486 43.7688C84.101 42.5931 83.1645 41.2354 81.5292 40.6475C80.8548 40.3227 80.0859 40.2526 79.3642 40.4507C78.6424 40.6487 78.0165 41.1016 77.6016 41.7253C77.477 42.0533 77.4251 42.4045 77.4495 42.7546C77.4738 43.1047 77.5739 43.4452 77.7427 43.7528C77.9116 44.0603 78.1451 44.3275 78.4273 44.5357C78.7094 44.7438 79.0334 44.888 79.3768 44.9584C80.0966 45.244 80.8907 45.282 81.6344 45.0667C82.3782 44.8514 83.0295 44.395 83.486 43.7688Z" fill="white"/>
<path opacity="0.9" d="M71.3816 50.2071C70.4172 51.1589 70.9205 52.3067 72.5279 52.7267C73.3189 52.9356 74.1467 52.9637 74.95 52.8087C75.7533 52.6536 76.5114 52.3195 77.1682 51.831C78.1466 50.9072 77.6016 49.8294 76.0082 49.3535C75.2249 49.1159 74.3962 49.0693 73.5913 49.2178C72.7865 49.3664 72.0288 49.7055 71.3816 50.2071Z" fill="white"/>
<path opacity="0.9" d="M68.4326 56.0997C66.7938 55.7201 65.0717 56.0018 63.6385 56.8837C62.5762 57.7095 62.9955 58.6893 64.5749 58.9972C66.2301 59.2719 67.929 58.9496 69.3692 58.0876C70.4314 57.3177 70.012 56.4637 68.4326 56.0997Z" fill="white"/>
<path opacity="0.9" d="M56.4402 65.2119C58.0974 65.3355 59.7501 64.9183 61.1505 64.0223C62.1988 63.2245 61.7934 62.4686 60.2139 62.2447C58.5463 62.0062 56.8488 62.379 55.4338 63.2944C54.3995 64.1483 54.8607 65.0299 56.4402 65.2119Z" fill="white"/>
<path opacity="0.9" d="M53.7143 70.4748C54.5669 69.565 54.0638 68.8232 52.4843 68.7112C50.8568 68.5992 49.2506 69.1321 48.0117 70.195C47.1591 71.1467 47.802 72.0287 49.4094 72.0847C50.9948 72.1056 52.5305 71.5311 53.7143 70.4748Z" fill="white"/>
<path opacity="0.9" d="M44.6852 80.385C45.4292 80.3876 46.1604 80.192 46.804 79.8181C47.4475 79.4442 47.9802 78.9055 48.3472 78.2574C48.8504 77.1237 48.0817 76.27 46.5163 76.256C45.7581 76.2224 45.0043 76.3881 44.33 76.7368C43.6556 77.0855 43.0842 77.6049 42.6725 78.2434C42.1694 79.3632 43.1337 80.385 44.6852 80.385Z" fill="white"/>
<path opacity="0.9" d="M43.6088 85.5918C42.8923 85.5638 42.1925 85.8127 41.654 86.2868C41.1155 86.761 40.7796 87.4241 40.7156 88.1393C40.7225 88.4825 40.7986 88.8207 40.9393 89.1337C41.0799 89.4467 41.2823 89.728 41.5342 89.9607C41.7862 90.1934 42.0825 90.3725 42.4054 90.4876C42.7283 90.6028 43.071 90.6516 43.4131 90.6308C44.1232 90.6635 44.8191 90.4242 45.3592 89.9614C45.8993 89.4985 46.243 88.8469 46.3205 88.1393C46.3172 87.7914 46.2435 87.4475 46.1039 87.1288C45.9644 86.8102 45.7617 86.5232 45.5083 86.2851C45.2549 86.047 44.9559 85.863 44.6294 85.7438C44.303 85.6247 43.9558 85.5728 43.6088 85.5918Z" fill="white"/>
<path opacity="0.9" d="M41.1347 99.5466C41.8439 99.5418 42.5404 99.357 43.1588 99.0094C43.7773 98.6618 44.2975 98.1629 44.671 97.5592C45.0764 96.5234 44.084 95.6274 42.5465 95.6554C41.8388 95.6592 41.146 95.8586 40.5442 96.2316C39.9425 96.6045 39.4552 97.1364 39.1361 97.769C38.7587 98.8608 39.6112 99.6166 41.1347 99.5466Z" fill="white"/>
<path opacity="0.9" d="M36.7043 106.223C38.1276 106.016 39.4616 105.404 40.548 104.46C41.191 103.69 40.4642 103.144 38.9826 103.312C37.5404 103.452 36.1985 104.114 35.2086 105.174C34.5657 105.957 35.2507 106.461 36.7043 106.223Z" fill="white"/>
<path opacity="0.9" d="M31.3231 111.36C32.6745 110.938 33.9592 110.325 35.1388 109.541C35.8796 108.967 35.3205 108.743 33.9088 109.093C32.5145 109.421 31.2109 110.057 30.0931 110.954C29.3942 111.626 29.9533 111.794 31.3231 111.36Z" fill="white"/>
<path opacity="0.9" d="M29.6736 113.558C30.3445 113.068 29.8274 113.124 28.4996 113.67C27.2211 114.197 26.0216 114.899 24.9353 115.755C24.3203 116.343 24.9354 116.273 26.1793 115.615C27.3847 115.001 28.5516 114.314 29.6736 113.558Z" fill="white"/>
<path opacity="0.9" d="M22.4195 119.8C23.475 119.034 24.4575 118.172 25.3547 117.225C25.788 116.707 25.2009 116.973 23.957 117.743C22.8201 118.383 21.7993 119.211 20.9378 120.192C20.5884 120.822 21.2175 120.668 22.4195 119.8Z" fill="white"/>
<path opacity="0.9" d="M23.3838 122.488C23.272 121.662 22.4474 121.844 21.3012 122.824C20.1551 123.804 19.1486 125.259 19.2884 126.155C19.4282 127.051 20.6861 126.995 21.7344 125.945C22.2248 125.508 22.6232 124.976 22.9064 124.383C23.1896 123.789 23.3518 123.145 23.3838 122.488Z" fill="white"/>
<path opacity="0.9" d="M28.0662 130.382C27.8415 130.093 27.5573 129.855 27.2327 129.684C26.9082 129.514 26.5511 129.416 26.1853 129.396C25.8195 129.376 25.4536 129.435 25.1126 129.569C24.7716 129.703 24.4632 129.909 24.2085 130.172C23.9255 130.441 23.6981 130.762 23.5393 131.118C23.3805 131.475 23.2934 131.859 23.283 132.249C23.2727 132.639 23.3391 133.027 23.4787 133.391C23.6184 133.755 23.8284 134.089 24.0967 134.371C24.3472 134.673 24.6547 134.921 25.0015 135.102C25.3484 135.284 25.7277 135.395 26.1176 135.428C26.5074 135.462 26.9001 135.419 27.273 135.3C27.6458 135.181 27.9914 134.989 28.2899 134.735C28.8139 134.118 29.0825 133.323 29.041 132.514C28.9994 131.705 28.6507 130.942 28.0662 130.382Z" fill="white"/>
<path opacity="0.9" d="M32.6227 141.3C31.5185 142.364 31.3927 144.715 32.2313 146.745C33.07 148.774 34.5795 149.768 35.7116 148.761C36.8438 147.753 37.1094 145.065 36.2708 142.966C35.4321 140.866 33.7269 140.236 32.6227 141.3Z" fill="white"/>
<path opacity="0.9" d="M38.4233 158.586C38.0026 158.967 37.6851 159.449 37.5007 159.986H41.009C40.3241 158.502 39.3038 157.9 38.4233 158.586Z" fill="white"/>
<path opacity="0.9" d="M84.6319 2.91119C85.6103 5.31868 87.707 7.30639 89.2305 7.2504C90.754 7.19442 91.2152 5.1649 90.2508 2.75741C89.8361 1.71962 89.2292 0.769773 88.4618 -0.0419922H84.1847C84.0522 0.965011 84.2072 1.98883 84.6319 2.91119Z" fill="white"/>
<path opacity="0.9" d="M92.4454 16.4884C90.9359 16.4884 90.1112 18.2381 90.6703 20.3376C91.2294 22.4372 92.9345 24.1447 94.4441 24.0747C95.9536 24.0047 96.7783 22.241 96.2192 20.1415C95.6601 18.0419 93.955 16.3765 92.4454 16.4884Z" fill="white"/>
<path opacity="0.9" d="M95.5204 31.7731C94.7743 31.8439 94.0794 32.184 93.5651 32.7299C93.0508 33.2758 92.7522 33.9906 92.725 34.7406C92.6782 35.0967 92.7093 35.4585 92.8161 35.8013C92.9229 36.1442 93.1028 36.4597 93.3435 36.726C93.5841 36.9923 93.8797 37.203 94.2097 37.3435C94.5398 37.484 94.8965 37.5512 95.255 37.54C96.0079 37.4613 96.7112 37.1265 97.2478 36.5917C97.7844 36.0569 98.122 35.3542 98.2041 34.6005C98.2507 34.2301 98.2145 33.8541 98.0982 33.4995C97.9819 33.1448 97.7884 32.8204 97.5315 32.5498C97.2747 32.2792 96.9611 32.069 96.6133 31.9347C96.2655 31.8004 95.8922 31.7453 95.5204 31.7731Z" fill="white"/>
<path opacity="0.9" d="M91.2992 47.0299C92.0514 46.9396 92.7751 46.6865 93.4196 46.2877C94.0641 45.8888 94.614 45.3539 95.0311 44.7205C95.6741 43.5588 95.0311 42.7468 93.6334 42.8588C92.8898 42.9098 92.1671 43.1275 91.5188 43.4958C90.8704 43.864 90.3128 44.3734 89.8875 44.9864C89.2305 46.1342 89.8875 47.1699 91.2992 47.0299Z" fill="white"/>
<path opacity="0.9" d="M87.9168 51.1172C86.3123 51.2308 84.7742 51.804 83.486 52.7687C82.4936 53.6645 82.9409 54.3925 84.4085 54.3225C85.9996 54.1951 87.5127 53.5792 88.7414 52.5589C89.7198 51.6351 89.3565 51.0192 87.9168 51.1172Z" fill="white"/>
<path opacity="0.9" d="M76.4974 60.0332C78.1305 59.9776 79.7207 59.4951 81.11 58.6335C82.1443 57.9057 81.8087 57.402 80.3132 57.444C78.6756 57.5101 77.0765 57.9607 75.6448 58.7596C74.5965 59.4455 74.9739 60.0612 76.4974 60.0332Z" fill="white"/>
<path opacity="0.9" d="M72.1785 62.9727C70.5147 62.9812 68.8835 63.4354 67.4542 64.2883C66.4059 65.0301 66.8251 65.688 68.4325 65.688C70.0988 65.6765 71.7275 65.1911 73.1288 64.2883C74.1492 63.5045 73.702 62.9727 72.1785 62.9727Z" fill="white"/>
<path opacity="0.9" d="M65.8606 70.4748C66.7132 69.593 66.1542 68.9353 64.4629 68.8933C62.8306 68.8614 61.2403 69.4119 59.9763 70.4468C59.1237 71.3286 59.7387 72.0146 61.374 72.0706C63.0151 72.1125 64.6135 71.5439 65.8606 70.4748Z" fill="white"/>
<path opacity="0.9" d="M56.6917 80.2032C57.4459 80.2159 58.1903 80.03 58.8502 79.664C59.5101 79.2979 60.0623 78.7647 60.4517 78.1177C60.9828 76.9979 60.2001 76.1438 58.5648 76.1018C57.7973 76.0583 57.0319 76.2195 56.3469 76.5686C55.6618 76.9178 55.0815 77.4426 54.6651 78.0896C54.1339 79.2234 55.0983 80.1612 56.6917 80.2032Z" fill="white"/>
<path opacity="0.9" d="M58.0754 88.0411C58.0957 87.7012 58.044 87.3609 57.9233 87.0426C57.8027 86.7242 57.616 86.4351 57.3756 86.1944C57.1352 85.9536 56.8465 85.7667 56.5287 85.6459C56.2108 85.5251 55.8709 85.4731 55.5316 85.4935C54.7946 85.4592 54.074 85.7183 53.5268 86.2139C52.9796 86.7094 52.6502 87.4014 52.6104 88.1391C52.6089 88.4732 52.6772 88.804 52.811 89.11C52.9449 89.416 53.1414 89.6907 53.3876 89.9161C53.6337 90.1416 53.9243 90.3126 54.2407 90.4188C54.557 90.525 54.892 90.5638 55.2241 90.5326C55.9181 90.5265 56.587 90.2719 57.11 89.815C57.6329 89.358 57.9753 88.7288 58.0754 88.0411Z" fill="white"/>
<path opacity="0.9" d="M52.6521 98.707C54.0016 98.4549 55.2054 97.6995 56.0207 96.5935C56.4679 95.6697 55.6293 95.0398 54.2316 95.1938C53.5515 95.2652 52.8965 95.49 52.3155 95.8512C51.7345 96.2124 51.2428 96.7006 50.8772 97.2793C50.4578 98.3291 51.3383 98.959 52.6521 98.707Z" fill="white"/>
<path opacity="0.9" d="M47.7881 104.166C49.118 103.742 50.3763 103.119 51.52 102.318C52.2189 101.716 51.6319 101.478 50.29 101.87C48.9339 102.221 47.6577 102.83 46.5302 103.662C45.8454 104.334 46.4462 104.642 47.7881 104.166Z" fill="white"/>
<path opacity="0.9" d="M44.7131 106.265C43.3849 106.762 42.0832 107.327 40.8134 107.959C40.0446 108.421 40.5199 108.407 41.8757 107.805C43.2315 107.203 44.9926 106.405 45.7614 106.069C46.5301 105.733 46.0689 105.719 44.7131 106.265Z" fill="white"/>
<path opacity="0.9" d="M40.0308 108.673H39.9469C39.248 108.981 37.5428 109.723 36.1591 110.436L35.0269 111.025H35.1806C35.9633 110.633 37.4729 109.932 38.7448 109.303L40.0308 108.673Z" fill="white"/>
<path opacity="0.9" d="M33.6291 111.78C32.478 112.421 31.3671 113.131 30.3025 113.908C29.8273 114.286 30.3865 113.908 31.7982 113.096C33.2099 112.284 34.7753 111.374 35.2645 111.052C35.5021 110.898 35.4461 110.884 35.1805 111.052H35.0268C34.7193 111.206 34.2441 111.444 33.6291 111.78Z" fill="white"/>
<path opacity="0.9" d="M32.8465 114.999C32.8465 114.327 31.7702 114.439 30.3585 115.349C28.9468 116.259 27.9126 117.631 27.9685 118.373C28.0244 119.115 29.1565 118.919 30.5542 117.939C31.952 116.959 32.8884 115.755 32.8465 114.999Z" fill="white"/>
<path opacity="0.9" d="M37.0816 122.012C36.543 121.448 35.8102 121.109 35.0317 121.065C34.2532 121.02 33.4872 121.274 32.8884 121.774C32.5697 122.013 32.3056 122.318 32.114 122.667C31.9223 123.017 31.8074 123.403 31.777 123.801C31.7465 124.198 31.8013 124.598 31.9375 124.973C32.0738 125.347 32.2882 125.689 32.5668 125.973C33.11 126.584 33.87 126.958 34.6847 127.016C35.4994 127.073 36.3043 126.81 36.9277 126.281C37.2293 126.018 37.4739 125.696 37.6462 125.335C37.8184 124.973 37.9148 124.58 37.9292 124.18C37.9436 123.78 37.8757 123.381 37.7299 123.008C37.5841 122.635 37.3635 122.296 37.0816 122.012Z" fill="white"/>
<path opacity="0.9" d="M44.5036 141.034C45.7615 140.124 46.1669 137.549 45.2584 135.323C44.3499 133.098 42.4629 132.118 41.2329 133.111C40.0029 134.105 39.919 136.569 40.8136 138.71C41.7081 140.852 43.2456 141.944 44.5036 141.034Z" fill="white"/>
<path opacity="0.9" d="M51.0308 155.423C50.4158 152.484 48.7944 150.748 47.5225 151.574C46.2506 152.4 45.8452 155.395 46.4322 158.265C46.544 158.858 46.7124 159.439 46.9354 160H50.9749C51.3458 158.499 51.365 156.933 51.0308 155.423Z" fill="white"/>
<path opacity="0.9" d="M100.021 5.36069C101.321 4.94078 101.698 2.70151 100.832 0.378008C100.789 0.24874 100.738 0.122457 100.678 6.10352e-05H95.5623C95.6417 0.61855 95.7966 1.225 96.0234 1.80573C96.9459 4.17123 98.721 5.7806 100.021 5.36069Z" fill="white"/>
<path opacity="0.9" d="M104.815 21.8913C106.017 21.4154 106.632 19.3578 106.213 17.3143C105.794 15.2707 104.27 13.9552 103.04 14.4031C101.81 14.851 101.265 16.9226 101.796 18.9942C102.327 21.0658 103.613 22.3672 104.815 21.8913Z" fill="white"/>
<path opacity="0.9" d="M105.85 29.4778C105.21 29.8941 104.671 30.4479 104.272 31.0993C103.873 31.7507 103.624 32.4831 103.543 33.2429C103.334 34.7406 104.018 35.5385 105.137 35.0206C105.794 34.6337 106.361 34.1118 106.802 33.4893C107.243 32.8669 107.547 32.1579 107.694 31.4092C107.946 29.9396 106.982 28.9739 105.85 29.4778Z" fill="white"/>
<path opacity="0.9" d="M100.943 44.6364C102.264 43.9377 103.355 42.8737 104.088 41.5711C104.717 40.3953 104.34 39.8633 103.236 40.3812C101.942 41.0925 100.862 42.1363 100.105 43.4048C99.4759 44.5665 99.8393 45.1263 100.943 44.6364Z" fill="white"/>
<path opacity="0.9" d="M97.7987 48.9477C96.4097 49.5503 95.1408 50.3992 94.0529 51.4532C93.1443 52.405 93.4238 52.8528 94.6258 52.3769C96.0317 51.8357 97.2978 50.9841 98.3298 49.8854C99.1824 48.8916 98.9588 48.4858 97.7987 48.9477Z" fill="white"/>
<path opacity="0.9" d="M87.4835 58.6333C88.9629 58.2128 90.3386 57.4882 91.5229 56.5058C92.4454 55.6939 92.1938 55.3719 90.9358 55.7499C89.4639 56.1954 88.0755 56.8814 86.8266 57.7797C85.8482 58.5495 86.1556 58.9693 87.4835 58.6333Z" fill="white"/>
<path opacity="0.9" d="M80.1593 64.7924C81.6963 64.4694 83.134 63.7829 84.3524 62.7906C85.261 61.9648 84.9256 61.573 83.5278 61.8669C81.9784 62.192 80.5096 62.8251 79.2087 63.7286C78.2723 64.5265 78.7056 65.0304 80.1593 64.7924Z" fill="white"/>
<path opacity="0.9" d="M73.5901 71.5668C75.1739 71.3457 76.6443 70.6193 77.7833 69.4953C78.566 68.5575 78.0628 68.0957 76.5672 68.2497C74.9862 68.4605 73.5002 69.1265 72.2901 70.1671C71.4235 71.0769 72.0666 71.7348 73.5901 71.5668Z" fill="white"/>
<path opacity="0.9" d="M68.726 79.699C69.4853 79.6047 70.2138 79.3407 70.8574 78.9264C71.501 78.512 72.0432 77.9582 72.444 77.3056C73.0031 76.1858 72.2903 75.5 70.7528 75.654C69.9824 75.713 69.2345 75.9418 68.5627 76.3241C67.891 76.7065 67.312 77.2327 66.8671 77.8653C66.322 78.9851 67.2025 79.853 68.726 79.699Z" fill="white"/>
<path opacity="0.9" d="M69.4109 86.9495C69.6206 85.5498 68.67 84.6399 67.1744 84.8079C66.4286 84.8791 65.726 85.1903 65.1717 85.695C64.6173 86.1997 64.2411 86.8706 64.0995 87.6073C63.9737 88.839 64.9521 89.5949 66.3918 89.3849C67.0766 89.3158 67.7266 89.0488 68.2626 88.6164C68.7987 88.184 69.1976 87.6048 69.4109 86.9495Z" fill="white"/>
<path opacity="0.9" d="M66.7132 94.48C67.2024 93.6682 66.4197 93.1643 65.022 93.4303C63.6911 93.6748 62.4996 94.4086 61.6814 95.4878C61.1922 96.3276 61.8771 96.6914 63.2608 96.3974C64.5922 96.1596 65.8067 95.4851 66.7132 94.48Z" fill="white"/>
<path opacity="0.9" d="M58.327 101.101C59.6671 100.819 60.9485 100.307 62.1148 99.5887C62.7857 99.0568 62.1149 98.8051 60.801 99.1271C59.4699 99.4414 58.209 100.001 57.083 100.779C56.3981 101.324 56.9293 101.422 58.327 101.101Z" fill="white"/>
<path opacity="0.9" d="M52.736 104.222C54.0865 103.941 55.4099 103.543 56.6915 103.032C57.4183 102.654 56.8453 102.556 55.4197 102.892C54.0714 103.241 52.7569 103.709 51.492 104.292C50.6953 104.558 51.2404 104.558 52.736 104.222Z" fill="white"/>
<path opacity="0.9" d="M49.7728 105.495C48.4372 105.793 47.1246 106.186 45.8451 106.671C45.1602 106.951 45.8452 106.839 47.3688 106.517C48.6976 106.284 50.006 105.947 51.2823 105.509C51.9392 105.215 51.3383 105.159 49.7728 105.495Z" fill="white"/>
<path opacity="0.9" d="M43.3294 108.757C44.6006 108.566 45.8413 108.208 47.0194 107.693C47.4666 107.385 46.586 107.301 45.0345 107.609C43.7578 107.835 42.5168 108.231 41.3445 108.785C40.8693 109.135 41.7499 109.107 43.3294 108.757Z" fill="white"/>
<path opacity="0.9" d="M42.0854 113.082C43.6788 112.788 44.811 112.074 44.7831 111.444C44.7551 110.814 43.5671 110.506 41.9876 110.8C40.4082 111.094 38.9685 111.892 38.9965 112.536C39.0244 113.18 40.478 113.39 42.0854 113.082Z" fill="white"/>
<path opacity="0.9" d="M47.6344 120.738C47.9321 120.685 48.2092 120.55 48.4349 120.348C48.6607 120.147 48.8261 119.887 48.913 119.597C48.9999 119.306 49.0049 118.998 48.9272 118.705C48.8495 118.413 48.6922 118.147 48.473 117.939C47.9005 117.367 47.1992 116.941 46.4281 116.698C45.657 116.454 44.8388 116.4 44.0423 116.539C42.4769 116.861 41.8478 118.051 42.8961 119.17C43.5179 119.771 44.2666 120.224 45.0869 120.495C45.9071 120.766 46.7778 120.85 47.6344 120.738Z" fill="white"/>
<path opacity="0.9" d="M55.0143 136.639C56.412 136.387 57.0549 134.246 56.1604 131.922C55.2658 129.599 53.2811 128.003 51.7995 128.283C50.3179 128.563 49.9406 130.606 50.8351 132.902C51.7297 135.197 53.5467 136.905 55.0143 136.639Z" fill="white"/>
<path opacity="0.9" d="M60.4375 158.292C61.9191 158.04 62.6739 155.493 62.0309 152.469C61.3879 149.446 59.5708 147.29 58.1032 147.542C56.6356 147.794 56.0346 150.342 56.7055 153.365C57.3764 156.389 58.9419 158.544 60.4375 158.292Z" fill="white"/>
<path opacity="0.9" d="M109.302 1.11989C109.695 0.844618 109.993 0.453095 110.154 6.10352e-05H106.772C107.555 1.09183 108.519 1.58179 109.302 1.11989Z" fill="white"/>
<path opacity="0.9" d="M111.664 9.79802C110.63 10.5259 110.182 12.7655 110.616 14.781C111.049 16.7966 112.111 17.7902 113.076 17.0204C113.63 16.3388 114.022 15.5393 114.22 14.683C114.419 13.8266 114.42 12.936 114.222 12.0794C113.872 10.1058 112.698 9.07018 111.664 9.79802Z" fill="white"/>
<path opacity="0.9" d="M113.677 24.3968C112.675 25.6371 112.002 27.1103 111.72 28.68C111.371 30.0797 111.72 30.6537 112.629 29.8418C113.68 28.6606 114.445 27.2521 114.865 25.7264C115.256 24.2708 114.571 23.585 113.677 24.3968Z" fill="white"/>
<path opacity="0.9" d="M108.519 39.7094C109.603 38.6503 110.492 37.4093 111.147 36.0424C111.72 34.8106 111.51 34.4466 110.658 35.2585C109.604 36.3327 108.719 37.5596 108.03 38.8978C107.429 40.1716 107.653 40.4793 108.519 39.7094Z" fill="white"/>
<path opacity="0.9" d="M105.85 44.3706C104.688 45.3065 103.641 46.3779 102.733 47.562C101.95 48.6258 102.146 48.8216 103.152 48.1638C104.366 47.336 105.417 46.2923 106.255 45.0845C106.884 43.9647 106.716 43.6568 105.85 44.3706Z" fill="white"/>
<path opacity="0.9" d="M97.0299 55.2183C98.3438 54.5428 99.5197 53.6266 100.496 52.517C101.265 51.5792 101.027 51.341 99.9512 51.9429C98.6726 52.6758 97.4895 53.5645 96.4289 54.5885C95.5763 55.4704 95.8558 55.7642 97.0299 55.2183Z" fill="white"/>
<path opacity="0.9" d="M93.6894 58.8717C92.2782 59.4488 90.9813 60.2736 89.8597 61.3072C89.021 62.189 89.4402 62.5947 90.7541 62.1608C92.1877 61.6433 93.4736 60.7832 94.5001 59.6553C95.2828 58.7175 94.9334 58.3679 93.6894 58.8717Z" fill="white"/>
<path opacity="0.9" d="M84.8836 69.5652C86.3847 69.1631 87.7202 68.2959 88.6994 67.0877C89.4122 66.0799 88.9091 65.688 87.5253 65.9959C86.0255 66.4192 84.6682 67.2414 83.5977 68.3753C82.9128 69.3271 83.4859 69.8871 84.8836 69.5652Z" fill="white"/>
<path opacity="0.9" d="M83.8774 75.318C84.4225 74.1702 83.7516 73.5403 82.284 73.8482C80.7558 74.1597 79.4135 75.0659 78.552 76.3678C77.9929 77.5015 78.8036 78.2572 80.2712 77.9773C81.021 77.8022 81.7274 77.476 82.3473 77.0188C82.9673 76.5616 83.4879 75.9831 83.8774 75.318Z" fill="white"/>
<path opacity="0.9" d="M80.467 84.9618C80.8024 83.5621 79.9359 82.7922 78.4963 83.0861C77.7473 83.2356 77.0534 83.5872 76.4893 84.1027C75.9252 84.6183 75.5124 85.2783 75.2954 86.0116C75.0578 87.1314 75.9384 87.7612 77.3501 87.4113C78.031 87.2919 78.6718 87.0059 79.2156 86.5785C79.7594 86.1512 80.1893 85.5958 80.467 84.9618Z" fill="white"/>
<path opacity="0.9" d="M77.3499 92.2822C77.853 91.4564 77.1122 90.9806 75.7284 91.2745C74.3819 91.5558 73.1729 92.2921 72.3041 93.36C71.7869 94.1579 72.4718 94.5076 73.8555 94.2417C75.2117 94.0132 76.4467 93.3208 77.3499 92.2822Z" fill="white"/>
<path opacity="0.9" d="M69.2013 99.0431C70.5395 98.8836 71.8195 98.4035 72.9331 97.6434C73.5621 97.0416 72.9331 96.7056 71.5354 96.9436C70.2114 97.1768 68.9531 97.6921 67.8455 98.455C67.1606 99.0289 67.7756 99.2531 69.2013 99.0431Z" fill="white"/>
<path opacity="0.9" d="M67.9992 101.632C68.6421 101.184 67.9991 100.877 66.5035 101.031C65.1521 101.166 63.8335 101.531 62.604 102.108C61.9191 102.5 62.6039 102.682 64.0995 102.584C65.4511 102.54 66.7789 102.216 67.9992 101.632Z" fill="white"/>
<path opacity="0.9" d="M61.5278 104.138C60.1805 104.137 58.8444 104.383 57.5861 104.866C56.9851 105.202 57.8238 105.411 59.4312 105.439C60.7606 105.527 62.0926 105.316 63.3307 104.824C63.9178 104.446 63.0933 104.096 61.5278 104.138Z" fill="white"/>
<path opacity="0.9" d="M53.6445 107.427C53.2392 107.777 54.2734 108.155 55.9786 108.295C57.2484 108.526 58.5584 108.37 59.7386 107.847C60.102 107.441 59.0816 106.979 57.4183 106.895C56.1356 106.747 54.8365 106.93 53.6445 107.427Z" fill="white"/>
<path opacity="0.9" d="M54.9724 112.956C56.7195 113.194 57.9775 112.872 57.9355 112.172C57.8936 111.472 56.5379 110.773 54.8326 110.521C53.1274 110.269 51.5899 110.717 51.6178 111.375C51.6458 112.032 53.2252 112.69 54.9724 112.956Z" fill="white"/>
<path opacity="0.9" d="M59.9765 120.682C61.6677 120.976 62.1849 119.954 61.3742 118.863C60.1627 117.573 58.5709 116.705 56.8316 116.385C55.0984 116.119 54.2597 116.763 55.1822 117.785C56.4801 119.178 58.1404 120.182 59.9765 120.682Z" fill="white"/>
<path opacity="0.9" d="M66.937 136.751C68.5584 137.017 69.2571 135.351 68.4185 133.014C67.5799 130.676 65.4972 128.675 63.8479 128.395C62.1986 128.115 61.6395 129.697 62.4502 132.02C63.2609 134.344 65.3156 136.485 66.937 136.751Z" fill="white"/>
<path opacity="0.9" d="M72.4299 158.04C74.0513 158.208 74.876 155.997 74.2191 153.113C73.5621 150.23 71.6333 147.724 70.0259 147.515C68.4185 147.305 67.7058 149.488 68.3627 152.427C69.0196 155.367 70.7946 157.872 72.4299 158.04Z" fill="white"/>
<path opacity="0.9" d="M119.827 10.3857C120.782 8.89445 121.206 7.12343 121.029 5.36061C120.861 3.49901 119.953 2.65946 119.058 3.54127C118.05 5.03948 117.659 6.87 117.968 8.65005C118.192 10.5676 118.988 11.3235 119.827 10.3857Z" fill="white"/>
<path opacity="0.9" d="M118.429 22.8011C119.271 21.4092 119.951 19.9249 120.456 18.3779C120.917 16.9782 120.456 16.4464 119.799 17.4262C118.998 18.8617 118.387 20.3956 117.982 21.9892C117.549 23.4449 117.744 23.7949 118.429 22.8011Z" fill="white"/>
<path opacity="0.9" d="M116.444 28.3721C115.593 29.6664 114.858 31.0341 114.25 32.4591C113.719 33.7468 113.858 34.0407 114.571 33.1029C115.462 31.8371 116.19 30.464 116.738 29.0159C117.241 27.6862 117.115 27.3923 116.444 28.3721Z" fill="white"/>
<path opacity="0.9" d="M112.349 38.2259C111.368 39.3736 110.511 40.6214 109.791 41.949C109.176 43.1388 109.358 43.2645 110.224 42.4527C111.281 41.4396 112.147 40.2452 112.782 38.9258C113.313 37.666 113.132 37.3721 112.349 38.2259Z" fill="white"/>
<path opacity="0.9" d="M107.764 46.7501C106.637 47.6525 105.636 48.7023 104.787 49.8714C104.116 50.8792 104.424 51.1594 105.458 50.4876C106.648 49.6472 107.652 48.5704 108.407 47.3242C108.994 46.2604 108.715 46.0083 107.764 46.7501Z" fill="white"/>
<path opacity="0.9" d="M99.4899 57.5275C98.791 58.5353 99.2384 58.9274 100.454 58.3955C101.79 57.7302 102.923 56.7202 103.739 55.47C104.354 54.4062 103.949 54.0705 102.816 54.6584C101.527 55.3819 100.395 56.3574 99.4899 57.5275Z" fill="white"/>
<path opacity="0.9" d="M97.8405 62.6649C96.416 63.2356 95.1875 64.2081 94.3042 65.4643C93.6612 66.5141 94.3043 67.0598 95.6042 66.6399C97.0491 66.1249 98.2796 65.1391 99.0985 63.8405C99.6855 62.6647 99.1404 62.189 97.8405 62.6649Z" fill="white"/>
<path opacity="0.9" d="M94.8074 72.5884C95.3245 71.3987 94.6536 70.7688 93.2559 71.1887C91.7584 71.6258 90.4899 72.6299 89.7196 73.9881C89.1745 75.1639 89.9293 75.8638 91.341 75.4999C92.0841 75.2719 92.7739 74.8966 93.3694 74.3965C93.9648 73.8964 94.4538 73.2815 94.8074 72.5884Z" fill="white"/>
<path opacity="0.9" d="M88.0565 84.9618C88.7513 84.7911 89.3979 84.4641 89.9477 84.0057C90.4974 83.5473 90.9358 82.9698 91.2294 82.3165C91.6347 81.0008 90.8659 80.231 89.4542 80.5809C88.7127 80.7939 88.0316 81.1783 87.4658 81.7035C86.9001 82.2287 86.4656 82.8798 86.1974 83.6042C85.876 84.6819 86.6728 85.2698 88.0565 84.9618Z" fill="white"/>
<path opacity="0.9" d="M84.4784 92.1841C85.8187 91.964 87.0214 91.2314 87.833 90.1406C88.3361 89.2308 87.6513 88.7408 86.2955 88.9928C84.9592 89.286 83.7704 90.045 82.9409 91.1344C82.4377 91.9602 83.1086 92.4361 84.4784 92.1841Z" fill="white"/>
<path opacity="0.9" d="M83.7096 96.3973C84.2687 95.6695 83.7096 95.1936 82.3119 95.3615C80.9916 95.5124 79.746 96.0534 78.7336 96.9154C78.1466 97.5872 78.8175 97.9791 80.2571 97.8811C81.5485 97.8179 82.7742 97.2912 83.7096 96.3973Z" fill="white"/>
<path opacity="0.9" d="M79.4464 101.548C79.9916 100.933 79.3346 100.429 77.853 100.443C76.5313 100.408 75.2287 100.763 74.1072 101.464C73.5202 101.996 74.2889 102.444 75.8264 102.528C77.1139 102.678 78.4096 102.327 79.4464 101.548Z" fill="white"/>
<path opacity="0.9" d="M75.6308 106.084C76.0781 105.524 75.2954 104.922 73.702 104.684C72.4016 104.453 71.0615 104.655 69.8862 105.258C69.397 105.734 70.3614 106.307 72.0108 106.587C72.6145 106.772 73.251 106.822 73.8762 106.735C74.5013 106.648 75.1001 106.426 75.6308 106.084Z" fill="white"/>
<path opacity="0.9" d="M72.8355 110.507C73.101 109.919 72.1506 109.107 70.4314 108.785C68.7122 108.463 67.0209 108.519 66.7134 109.023C66.4059 109.527 67.566 110.296 69.3272 110.786C71.0883 111.276 72.5559 111.094 72.8355 110.507Z" fill="white"/>
<path opacity="0.9" d="M68.7679 116.483C70.6129 117.141 71.6751 116.903 71.5633 116.063C71.4515 115.223 70.2775 114.16 68.4744 113.586C66.6713 113.012 65.1199 113.166 65.1758 113.936C65.2317 114.706 66.9368 115.825 68.7679 116.483Z" fill="white"/>
<path opacity="0.9" d="M74.8061 123.677C73.6887 122.199 72.1908 121.053 70.473 120.36C68.642 119.619 67.6777 119.94 68.5024 121.06C69.8403 122.651 71.5038 123.935 73.3804 124.825C75.1695 125.553 75.6028 124.853 74.8061 123.677Z" fill="white"/>
<path opacity="0.9" d="M79.8098 140.362C81.529 141.02 82.0882 139.606 81.2915 137.409C80.5123 135.226 78.947 133.414 76.9026 132.328C75.1554 131.614 74.4565 132.776 75.2672 135.029C76.0729 137.307 77.6907 139.206 79.8098 140.362Z" fill="white"/>
<path opacity="0.9" d="M86.9663 156.459C86.2815 153.743 84.5203 151.196 82.7732 150.622C81.026 150.048 80.2713 151.826 80.9422 154.639C81.4142 156.708 82.5125 158.58 84.0871 160H86.8826C87.3206 158.865 87.3502 157.613 86.9663 156.459Z" fill="white"/>
<path opacity="0.9" d="M124.132 1.55352C124.132 3.34514 124.719 3.975 125.39 2.95322C125.923 2.0251 126.292 1.01189 126.48 -0.0419922H124.216C124.144 0.486721 124.116 1.02023 124.132 1.55352Z" fill="white"/>
<path opacity="0.9" d="M124.663 9.62976C123.973 11.1137 123.385 12.643 122.902 14.2068C122.399 15.6065 122.469 15.9705 123 14.9347C123.531 13.8989 124.397 11.8834 124.859 10.4417C125.32 9 125.222 8.59398 124.663 9.62976Z" fill="white"/>
<path opacity="0.9" d="M121.113 20.7017C120.396 22.096 119.784 23.5414 119.282 25.0266C118.834 26.4263 118.974 26.7202 119.575 25.7544C120.326 24.3834 120.921 22.933 121.35 21.4296C121.742 20.0159 121.672 19.6799 121.113 20.7017Z" fill="white"/>
<path opacity="0.9" d="M116.458 36.0705C117.423 34.972 118.13 33.6712 118.527 32.2634C118.876 30.8637 118.625 30.4576 117.94 31.3674C117.072 32.6175 116.385 33.9843 115.899 35.4267C115.452 36.7564 115.634 36.9243 116.458 36.0705Z" fill="white"/>
<path opacity="0.9" d="M114.753 40.8993C113.713 41.8889 112.868 43.0667 112.265 44.3705C111.776 45.5043 112.167 45.8543 113.146 45.1404C114.268 44.2339 115.123 43.0389 115.62 41.6832C116.011 40.4794 115.634 40.1714 114.753 40.8993Z" fill="white"/>
<path opacity="0.9" d="M109.553 54.0845C110.851 53.3728 111.87 52.2433 112.447 50.8791C112.88 49.6894 112.349 49.2415 111.273 49.8714C110.045 50.6719 109.043 51.7759 108.365 53.0768C107.848 54.1685 108.379 54.6584 109.553 54.0845Z" fill="white"/>
<path opacity="0.9" d="M105.849 63.1404C107.272 62.588 108.425 61.5041 109.064 60.1171C109.526 58.8994 108.869 58.3396 107.667 58.8435C106.28 59.4619 105.139 60.5257 104.424 61.8668C103.823 63.0285 104.452 63.6023 105.849 63.1404Z" fill="white"/>
<path opacity="0.9" d="M105.514 69.5652C105.975 68.3194 105.248 67.6475 103.851 68.0674C102.366 68.5629 101.136 69.6241 100.426 71.0209C99.9371 72.2527 100.692 72.9383 102.118 72.5464C102.86 72.3133 103.545 71.9279 104.13 71.4146C104.715 70.9012 105.186 70.2714 105.514 69.5652Z" fill="white"/>
<path opacity="0.9" d="M100.259 77.7116C99.5059 77.9483 98.8128 78.3445 98.2267 78.8735C97.6406 79.4024 97.1752 80.0516 96.8621 80.7769C96.4568 81.9526 97.1837 82.5545 98.5815 82.1766C99.3085 81.9709 99.9848 81.6156 100.567 81.1336C101.15 80.6516 101.625 80.0535 101.964 79.3772C102.397 78.1034 101.656 77.3337 100.259 77.7116Z" fill="white"/>
<path opacity="0.9" d="M94.6679 90.239C95.3531 90.1033 96.0042 89.8316 96.5828 89.4397C97.1614 89.0478 97.6557 88.5437 98.0365 87.9573C98.5676 86.9355 97.8966 86.3056 96.5408 86.5576C95.1676 86.9086 93.9699 87.7501 93.1724 88.9233C92.6273 89.9451 93.2702 90.4769 94.6679 90.239Z" fill="white"/>
<path opacity="0.9" d="M93.9549 95.3336C94.4721 94.4378 93.8152 93.8079 92.4734 93.9339C91.1525 94.1018 89.9388 94.7493 89.0629 95.7536C88.5317 96.5654 89.2027 97.1532 90.5585 97.0412C91.2133 97.0145 91.8548 96.8487 92.4405 96.5542C93.0261 96.2598 93.5424 95.8435 93.9549 95.3336Z" fill="white"/>
<path opacity="0.9" d="M86.7286 103.158C87.3556 103.249 87.9954 103.183 88.5906 102.966C89.1858 102.748 89.7179 102.386 90.1391 101.912C90.6004 101.101 89.8735 100.401 88.4758 100.387C87.8445 100.359 87.2144 100.46 86.6233 100.684C86.0323 100.908 85.4927 101.249 85.0374 101.688C84.5482 102.388 85.3029 103.018 86.7286 103.158Z" fill="white"/>
<path opacity="0.9" d="M84.9537 106.153C84.3589 106.004 83.7365 106.004 83.1417 106.153C82.5469 106.302 81.9979 106.595 81.5432 107.007C81.1518 107.679 82.0744 108.477 83.57 108.799C85.0655 109.121 86.561 108.799 86.9244 108.001C87.2878 107.203 86.4073 106.377 84.9537 106.153Z" fill="white"/>
<path opacity="0.9" d="M84.6879 114.048C84.8976 113.25 83.8494 112.228 82.3119 111.78C80.7744 111.332 79.2927 111.556 79.0551 112.256C78.8175 112.956 79.8938 113.978 81.4593 114.524C83.0247 115.07 84.4783 114.846 84.6879 114.048Z" fill="white"/>
<path opacity="0.9" d="M81.1517 121.578C82.7451 122.32 83.9472 122.082 83.7934 121.074C83.6397 120.067 82.3957 118.737 80.8443 118.079C79.2928 117.421 77.923 117.631 78.0488 118.555C78.1746 119.479 79.5583 120.836 81.1517 121.578Z" fill="white"/>
<path opacity="0.9" d="M85.2192 130.774C86.7427 131.628 87.2878 131.124 86.6169 129.823C85.6578 128.239 84.3045 126.932 82.6894 126.029C81.1099 125.218 80.2852 125.498 81.026 126.743C82.1233 128.369 83.5525 129.743 85.2192 130.774Z" fill="white"/>
<path opacity="0.9" d="M91.355 145.485C92.8366 146.227 93.4237 145.065 92.641 143.008C91.7971 140.919 90.3335 139.141 88.4478 137.913C86.9523 137.101 86.4071 138.081 87.1899 140.194C87.9882 142.353 89.4457 144.204 91.355 145.485Z" fill="white"/>
<path opacity="0.9" d="M94.416 155.087C92.9204 154.443 92.3054 155.983 93.0182 158.6C93.1493 159.076 93.3081 159.543 93.4936 160H98.2039C97.5449 157.974 96.2066 156.238 94.416 155.087Z" fill="white"/>
<path opacity="0.9" d="M128.647 1.70747C128.157 2.71526 127.389 4.73076 126.843 6.18645C126.298 7.64214 126.284 7.96413 126.731 6.94235C127.179 5.92057 127.92 3.91906 128.493 2.46337C129.066 1.00768 129.122 0.685692 128.647 1.70747Z" fill="white"/>
<path opacity="0.9" d="M125.012 12.9191C124.37 14.3579 123.86 15.8523 123.489 17.3841C123.139 18.7838 123.335 19.2459 123.852 18.2941C124.506 16.8762 124.976 15.3801 125.25 13.8428C125.557 12.3311 125.418 11.9113 125.012 12.9191Z" fill="white"/>
<path opacity="0.9" d="M122.888 24.4109C122.106 25.7343 121.575 27.1913 121.322 28.708C121.099 30.1917 121.406 30.4295 122.119 29.6177C123.009 28.4615 123.561 27.0806 123.713 25.6288C123.852 24.0751 123.489 23.5151 122.888 24.4109Z" fill="white"/>
<path opacity="0.9" d="M121.225 34.9927C120.257 36.0277 119.573 37.2957 119.24 38.6737C118.96 39.9614 119.463 40.4234 120.386 39.7375C121.445 38.7827 122.145 37.4936 122.371 36.0845C122.622 34.7408 122.049 34.2368 121.225 34.9927Z" fill="white"/>
<path opacity="0.9" d="M116.906 48.4576C116.584 49.7173 117.227 50.2914 118.303 49.7456C118.923 49.385 119.461 48.8988 119.882 48.3178C120.303 47.7369 120.599 47.074 120.749 46.3721C120.973 45.0423 120.33 44.4405 119.352 45.0424C118.173 45.8701 117.31 47.0743 116.906 48.4576Z" fill="white"/>
<path opacity="0.9" d="M114.236 58.1856C113.872 59.4454 114.599 60.117 115.885 59.6971C116.573 59.4265 117.19 59.0021 117.689 58.4563C118.188 57.9105 118.556 57.2577 118.764 56.5477C119.072 55.232 118.317 54.5324 117.115 55.0083C116.448 55.3184 115.849 55.759 115.354 56.3048C114.86 56.8505 114.479 57.4902 114.236 58.1856Z" fill="white"/>
<path opacity="0.9" d="M116.067 66.6396C116.472 65.3379 115.689 64.5681 114.348 64.946C113.628 65.1884 112.969 65.5826 112.414 66.1017C111.86 66.6208 111.423 67.253 111.133 67.9556C110.7 69.2433 111.468 69.9851 112.838 69.6351C113.568 69.4135 114.237 69.0284 114.797 68.5095C115.356 67.9906 115.791 67.3512 116.067 66.6396Z" fill="white"/>
<path opacity="0.9" d="M109.05 79.5311C109.791 79.3238 110.482 78.9688 111.082 78.4878C111.683 78.0068 112.18 77.4096 112.545 76.7317C113.076 75.4719 112.349 74.6321 110.965 74.968C110.222 75.2027 109.536 75.5901 108.951 76.106C108.366 76.6218 107.895 77.2545 107.569 77.9632C107.066 79.125 107.695 79.853 109.05 79.5311Z" fill="white"/>
<path opacity="0.9" d="M104.829 88.5172C105.534 88.3855 106.2 88.0985 106.78 87.6773C107.36 87.2561 107.84 86.7113 108.184 86.0818C108.729 84.92 108.114 84.1363 106.786 84.4022C106.084 84.5689 105.423 84.8767 104.844 85.3074C104.265 85.7382 103.78 86.2826 103.417 86.9074C102.872 88.0132 103.515 88.6992 104.829 88.5172Z" fill="white"/>
<path opacity="0.9" d="M104.242 94.7599C104.717 93.6681 104.046 92.8422 102.733 92.9402C102.062 93.0074 101.414 93.2249 100.839 93.5762C100.263 93.9274 99.7732 94.4035 99.406 94.9697C98.9168 95.9635 99.6156 96.7333 100.957 96.7193C101.628 96.7067 102.283 96.5196 102.859 96.176C103.435 95.8324 103.912 95.3442 104.242 94.7599Z" fill="white"/>
<path opacity="0.9" d="M100.888 102.836C101.279 101.814 100.496 100.877 99.1265 100.779C98.4888 100.71 97.8446 100.817 97.2633 101.089C96.682 101.36 96.1856 101.785 95.8279 102.318C95.4086 103.242 96.2333 104.124 97.645 104.334C98.2744 104.464 98.929 104.389 99.5126 104.12C100.096 103.85 100.578 103.4 100.888 102.836Z" fill="white"/>
<path opacity="0.9" d="M98.3157 110.688C98.5952 109.666 97.6587 108.575 96.2051 108.253C94.7515 107.931 93.27 108.435 92.9485 109.33C92.627 110.226 93.6193 111.304 95.1288 111.724C96.6384 112.144 98.0501 111.696 98.3157 110.688Z" fill="white"/>
<path opacity="0.9" d="M94.1927 115.643C92.6412 115.084 91.2155 115.391 91.0338 116.315C90.8521 117.239 91.9982 118.541 93.5776 119.199C95.157 119.857 96.5547 119.549 96.7085 118.513C96.8622 117.477 95.7302 116.189 94.1927 115.643Z" fill="white"/>
<path opacity="0.9" d="M93.5077 127.793C95.1291 128.661 96.303 128.367 96.1772 127.163C95.9813 126.378 95.6087 125.648 95.0878 125.03C94.567 124.411 93.9118 123.92 93.1723 123.594C91.5649 122.824 90.237 123.076 90.3768 124.196C90.6299 124.976 91.0376 125.696 91.5756 126.314C92.1136 126.933 92.7708 127.435 93.5077 127.793Z" fill="white"/>
<path opacity="0.9" d="M97.016 137.969C98.5675 138.963 99.2103 138.641 98.6372 137.199C97.7949 135.443 96.4778 133.959 94.8355 132.916C93.2421 131.964 92.3196 132.258 92.9486 133.616C93.9448 135.366 95.3382 136.857 97.016 137.969Z" fill="white"/>
<path opacity="0.9" d="M102.858 151.7C104.368 152.568 104.969 151.7 104.256 149.726C103.356 147.683 101.904 145.933 100.063 144.673C98.5533 143.735 97.9523 144.477 98.6652 146.451C99.5334 148.566 100.989 150.387 102.858 151.7Z" fill="white"/>
<path opacity="0.9" d="M128.465 5.61269C127.854 7.03164 127.427 8.52255 127.193 10.0496C126.955 11.6033 127.193 12.1771 127.724 11.3232C128.338 9.92015 128.721 8.4264 128.856 6.90031C129.038 5.30465 128.912 4.71689 128.465 5.61269Z" fill="white"/>
<path opacity="0.9" d="M127.375 23.6409C128.242 22.4948 128.664 21.0724 128.563 19.638C128.563 17.9303 128.004 17.1606 127.43 17.9444C126.689 19.2906 126.3 20.8022 126.298 22.3393C126.27 23.977 126.704 24.3548 127.375 23.6409Z" fill="white"/>
<path opacity="0.9" d="M127.249 34.8524C127.763 34.3861 128.167 33.8117 128.433 33.1704C128.699 32.5291 128.819 31.8369 128.786 31.1433C128.786 29.6596 128.101 28.9316 127.389 29.5755C126.447 30.6142 125.903 31.9527 125.851 33.3546C125.711 34.7823 126.368 35.4262 127.249 34.8524Z" fill="white"/>
<path opacity="0.9" d="M126.815 45.9243C127.424 45.5887 127.933 45.0964 128.289 44.4986C128.645 43.9009 128.836 43.2189 128.842 42.5228C128.842 41.1231 128.087 40.2272 127.095 40.7311C126.523 41.1274 126.047 41.6455 125.699 42.2481C125.351 42.8506 125.14 43.5227 125.082 44.2164C124.928 45.6161 125.697 46.3722 126.815 45.9243Z" fill="white"/>
<path opacity="0.9" d="M126.27 51.7048C125.615 51.9799 125.041 52.4172 124.601 52.9753C124.161 53.5335 123.87 54.1944 123.755 54.8962C123.531 56.2959 124.342 57.0938 125.586 56.7719C126.261 56.5442 126.859 56.1305 127.312 55.5786C127.764 55.0267 128.052 54.3584 128.143 53.6503C128.297 52.2226 127.444 51.3689 126.27 51.7048Z" fill="white"/>
<path opacity="0.9" d="M123.265 67.2698C123.984 67.1014 124.645 66.7461 125.182 66.2398C125.72 65.7336 126.114 65.0941 126.326 64.3863C126.648 62.9866 125.823 62.0909 124.523 62.3708C123.815 62.5762 123.17 62.9548 122.645 63.4729C122.12 63.991 121.733 64.6322 121.518 65.338C121.224 66.6817 121.923 67.5217 123.265 67.2698Z" fill="white"/>
<path opacity="0.9" d="M122.888 74.5904C123.475 73.3447 122.79 72.4067 121.49 72.6446C120.759 72.8421 120.079 73.1944 119.496 73.6773C118.912 74.1602 118.439 74.7625 118.108 75.444C117.507 76.7597 118.108 77.6278 119.352 77.4038C120.104 77.2069 120.807 76.8549 121.416 76.3704C122.025 75.886 122.526 75.2798 122.888 74.5904Z" fill="white"/>
<path opacity="0.9" d="M118.121 84.8637C118.667 83.548 118.121 82.5822 116.821 82.7501C116.102 82.8976 115.427 83.2076 114.845 83.6564C114.264 84.1051 113.792 84.6809 113.467 85.3397C112.908 86.5855 113.467 87.4812 114.865 87.3832C115.574 87.2665 116.242 86.9752 116.811 86.5354C117.379 86.0956 117.83 85.5211 118.121 84.8637Z" fill="white"/>
<path opacity="0.9" d="M114.348 94.7598C114.472 94.5072 114.527 94.2262 114.508 93.9454C114.489 93.6646 114.395 93.3939 114.238 93.1608C114.08 92.9277 113.864 92.7405 113.611 92.6182C113.358 92.4958 113.077 92.4429 112.796 92.4644C112.115 92.504 111.458 92.7297 110.896 93.1171C110.335 93.5045 109.889 94.0387 109.61 94.6617C109.497 94.9154 109.452 95.1942 109.479 95.4705C109.507 95.7469 109.606 96.0115 109.767 96.2377C109.928 96.4639 110.145 96.6441 110.397 96.7605C110.649 96.877 110.927 96.9254 111.203 96.9013C111.884 96.9131 112.552 96.7134 113.115 96.33C113.678 95.9465 114.108 95.3981 114.348 94.7598Z" fill="white"/>
<path opacity="0.9" d="M111.538 104.418C111.61 104.12 111.616 103.811 111.557 103.511C111.498 103.211 111.374 102.927 111.195 102.68C111.015 102.432 110.785 102.227 110.518 102.077C110.252 101.928 109.956 101.838 109.651 101.814C109.009 101.724 108.354 101.849 107.79 102.171C107.226 102.492 106.785 102.992 106.534 103.592C106.476 103.891 106.482 104.199 106.552 104.496C106.621 104.793 106.753 105.071 106.938 105.313C107.123 105.555 107.357 105.755 107.625 105.9C107.892 106.045 108.188 106.131 108.491 106.153C109.125 106.31 109.794 106.218 110.361 105.895C110.928 105.572 111.349 105.043 111.538 104.418Z" fill="white"/>
<path opacity="0.9" d="M109.679 113.978C109.715 113.293 109.508 112.617 109.093 112.071C108.678 111.525 108.084 111.145 107.415 110.996C107.122 110.878 106.808 110.821 106.493 110.828C106.177 110.835 105.866 110.906 105.579 111.037C105.291 111.168 105.033 111.356 104.82 111.589C104.607 111.823 104.444 112.097 104.34 112.396C104.33 113.08 104.555 113.747 104.977 114.285C105.4 114.823 105.994 115.198 106.66 115.349C108.17 115.755 109.498 115.223 109.679 113.978Z" fill="white"/>
<path opacity="0.9" d="M105.752 124.56C107.331 125.288 108.673 124.84 108.729 123.58C108.656 122.817 108.368 122.09 107.898 121.485C107.427 120.88 106.794 120.422 106.073 120.164C104.536 119.549 103.166 119.983 103.068 121.144C103.162 121.905 103.461 122.625 103.934 123.227C104.407 123.829 105.036 124.29 105.752 124.56Z" fill="white"/>
<path opacity="0.9" d="M108.645 133.84C108.471 132.982 108.105 132.175 107.575 131.479C107.045 130.783 106.364 130.217 105.584 129.823C103.963 128.983 102.663 129.346 102.789 130.648C103.014 131.509 103.414 132.315 103.965 133.013C104.516 133.712 105.205 134.289 105.989 134.707C107.597 135.631 108.757 135.225 108.645 133.84Z" fill="white"/>
<path opacity="0.9" d="M108.98 145.891C110.546 146.941 111.273 146.717 110.811 145.149C110.1 143.261 108.814 141.645 107.135 140.53C105.528 139.522 104.55 139.872 105.067 141.384C105.94 143.214 107.292 144.771 108.98 145.891Z" fill="white"/>
<path opacity="0.9" d="M114.474 158.628C115.983 159.552 116.598 158.796 115.871 157.033C114.963 155.074 113.561 153.386 111.804 152.134C110.28 151.14 109.623 151.728 110.406 153.533C111.278 155.568 112.684 157.328 114.474 158.628Z" fill="white"/>
<path opacity="0.9" d="M131.498 5.52878C132.133 4.22032 132.463 2.78447 132.462 1.32968C132.485 0.891387 132.485 0.452327 132.462 0.0140381H131.624C131.146 1.20816 130.854 2.4684 130.757 3.75113C130.617 5.38879 131.009 6.17265 131.498 5.52878Z" fill="white"/>
<path opacity="0.9" d="M131.861 12.6395C131.127 13.9538 130.856 15.4771 131.093 16.9644C131.26 18.742 131.847 19.344 132.49 18.8261C132.923 18.2932 133.226 17.6665 133.374 16.9958C133.522 16.3251 133.511 15.6288 133.343 14.9629C133.091 13.1013 132.406 12.0516 131.861 12.6395Z" fill="white"/>
<path opacity="0.9" d="M133.287 25.2928C132.818 25.7776 132.471 26.3659 132.272 27.0103C132.072 27.6547 132.028 28.3369 132.141 29.0018C132.267 30.5695 133.077 31.4653 133.958 31.0734C134.838 30.6815 135.355 29.0857 135.118 27.462C134.88 25.8384 134.056 24.8449 133.287 25.2928Z" fill="white"/>
<path opacity="0.9" d="M134.601 37.5122C134.035 37.8679 133.582 38.3786 133.298 38.984C133.013 39.5893 132.907 40.2638 132.993 40.9274C132.993 42.467 133.958 43.4466 135.02 43.1947C135.632 42.9118 136.13 42.4306 136.435 41.8285C136.739 41.2264 136.832 40.5389 136.697 39.8776C136.599 38.2819 135.579 37.1902 134.601 37.5122Z" fill="white"/>
<path opacity="0.9" d="M135.202 49.4511C134.556 49.672 133.996 50.0913 133.602 50.6492C133.208 51.2071 133 51.8755 133.008 52.5588C133.008 54.0285 133.832 55.0501 135.048 54.8962C135.717 54.7458 136.311 54.3647 136.728 53.8197C137.144 53.2747 137.356 52.6002 137.326 51.9146C137.34 50.3889 136.376 49.2552 135.202 49.4511Z" fill="white"/>
<path opacity="0.9" d="M133.413 65.9258C134.113 65.8398 134.77 65.5378 135.291 65.0612C135.812 64.5846 136.171 63.9573 136.32 63.2665C136.414 62.9785 136.436 62.672 136.385 62.3735C136.333 62.0751 136.21 61.7937 136.025 61.5537C135.841 61.3138 135.601 61.1227 135.326 60.9967C135.05 60.8708 134.749 60.8138 134.447 60.831C133.757 60.9693 133.124 61.3088 132.626 61.807C132.129 62.3051 131.79 62.9396 131.652 63.6304C131.344 65.0161 132.113 66.0097 133.413 65.9258Z" fill="white"/>
<path opacity="0.9" d="M128.213 73.9046C127.514 75.3043 127.962 76.34 129.233 76.27C130.008 76.136 130.741 75.825 131.376 75.3613C132.011 74.8977 132.531 74.2937 132.895 73.5963C133.538 72.3786 132.896 71.3011 131.596 71.385C130.874 71.5099 130.192 71.803 129.604 72.2407C129.017 72.6784 128.54 73.2484 128.213 73.9046Z" fill="white"/>
<path opacity="0.9" d="M126.592 81.9945C125.862 82.0948 125.172 82.3858 124.591 82.8379C124.009 83.29 123.557 83.8874 123.279 84.5701C122.72 85.9698 123.279 87.0476 124.579 87.0756C125.298 87.0024 125.981 86.7288 126.552 86.2859C127.123 85.8429 127.558 85.2485 127.808 84.5701C128.367 83.1424 127.85 81.9665 126.592 81.9945Z" fill="white"/>
<path opacity="0.9" d="M124.244 95.5437C124.367 95.2579 124.423 94.9472 124.407 94.6361C124.391 94.325 124.302 94.0216 124.149 93.7504C123.996 93.4791 123.783 93.2473 123.525 93.0727C123.267 92.8981 122.973 92.7857 122.664 92.7443C121.976 92.75 121.308 92.9776 120.759 93.3936C120.21 93.8096 119.809 94.3918 119.617 95.0537C119.499 95.3461 119.449 95.6621 119.473 95.9767C119.497 96.2913 119.593 96.5961 119.754 96.8672C119.915 97.1384 120.137 97.3687 120.402 97.5397C120.667 97.7108 120.967 97.8179 121.28 97.8531C121.969 97.8868 122.646 97.6723 123.19 97.2486C123.733 96.8248 124.107 96.22 124.244 95.5437Z" fill="white"/>
<path opacity="0.9" d="M122.035 106.573C122.158 105.901 122.019 105.208 121.647 104.635C121.276 104.063 120.699 103.654 120.036 103.494C119.386 103.371 118.713 103.511 118.166 103.883C117.618 104.256 117.241 104.83 117.115 105.481C117.029 106.157 117.191 106.841 117.572 107.405C117.953 107.969 118.526 108.375 119.184 108.547C119.502 108.632 119.835 108.646 120.16 108.589C120.484 108.533 120.793 108.406 121.064 108.218C121.335 108.031 121.562 107.787 121.73 107.503C121.898 107.218 122.002 106.901 122.035 106.573Z" fill="white"/>
<path opacity="0.9" d="M118.513 114.244C118.222 114.128 117.908 114.081 117.596 114.105C117.284 114.129 116.981 114.225 116.711 114.384C116.442 114.544 116.212 114.763 116.04 115.024C115.867 115.286 115.757 115.584 115.718 115.896C115.726 116.653 115.968 117.389 116.411 118.003C116.854 118.617 117.476 119.079 118.191 119.325C118.478 119.478 118.799 119.555 119.124 119.549C119.448 119.542 119.766 119.453 120.046 119.289C120.327 119.124 120.56 118.891 120.725 118.611C120.89 118.33 120.98 118.012 120.987 117.687C120.996 116.923 120.761 116.177 120.316 115.558C119.871 114.938 119.239 114.477 118.513 114.244Z" fill="white"/>
<path opacity="0.9" d="M117.884 130.228C119.463 130.97 120.679 130.354 120.679 128.829C120.593 128.001 120.288 127.211 119.797 126.54C119.306 125.868 118.646 125.34 117.884 125.007C116.346 124.364 115.088 125.007 115.088 126.323C115.179 127.16 115.484 127.96 115.974 128.644C116.463 129.328 117.121 129.874 117.884 130.228Z" fill="white"/>
<path opacity="0.9" d="M118.429 141.804C120.051 142.714 121.225 142.154 121.071 140.586C120.908 139.677 120.541 138.817 119.999 138.071C119.457 137.324 118.753 136.71 117.94 136.275C116.333 135.435 115.145 135.939 115.145 137.423C115.349 138.345 115.748 139.213 116.314 139.968C116.881 140.724 117.602 141.35 118.429 141.804Z" fill="white"/>
<path opacity="0.9" d="M121.015 153.883C122.58 154.905 123.391 154.709 123.028 153.029C122.452 151.068 121.205 149.374 119.505 148.242C117.898 147.262 116.85 147.738 117.269 149.362C117.993 151.237 119.308 152.824 121.015 153.883Z" fill="white"/>
<path opacity="0.9" d="M123.517 159.748C122.329 158.992 121.658 159.118 121.756 160H123.866L123.517 159.748Z" fill="white"/>
<path opacity="0.9" d="M135.537 1.59557C135.946 1.16111 136.189 0.596146 136.222 6.10352e-05H134.517C134.643 1.20381 135.076 1.88951 135.537 1.59557Z" fill="white"/>
<path opacity="0.9" d="M135.985 13.2273C136.362 15.1589 137.103 16.0268 137.816 15.7748C138.528 15.5229 138.864 14.2211 138.417 12.2335C137.969 10.246 137.131 8.84633 136.502 9.15426C135.873 9.4622 135.621 11.3097 135.985 13.2273Z" fill="white"/>
<path opacity="0.9" d="M139.395 22.7591C138.584 22.9411 138.221 24.5367 138.556 26.2303C138.892 27.924 139.954 29.1277 140.764 29.0297C141.575 28.9318 142.05 27.4339 141.631 25.6843C141.212 23.9346 140.15 22.5631 139.395 22.7591Z" fill="white"/>
<path opacity="0.9" d="M142.19 35.9723C141.198 36.0423 140.639 37.512 140.89 39.1777C141.142 40.8433 142.19 42.1032 143.267 42.0892C144.343 42.0752 144.958 40.6892 144.664 39.0376C144.371 37.3859 143.141 35.8883 142.19 35.9723Z" fill="white"/>
<path opacity="0.9" d="M142.19 51.6629C142.147 52.3409 142.351 53.0117 142.765 53.5499C143.179 54.0881 143.775 54.4573 144.441 54.5884C145.657 54.6724 146.593 53.5107 146.467 51.8871C146.342 50.2634 145.265 48.8354 144.105 48.7934C142.945 48.7515 142.092 50.0812 142.19 51.6629Z" fill="white"/>
<path opacity="0.9" d="M143.323 66.066C143.994 66.1071 144.656 65.8915 145.175 65.4628C145.694 65.0341 146.031 64.4245 146.118 63.7566C146.187 63.4346 146.191 63.1018 146.129 62.7782C146.068 62.4547 145.942 62.1467 145.76 61.8727C145.577 61.5986 145.342 61.3641 145.067 61.1827C144.793 61.0014 144.485 60.8771 144.161 60.8171C143.499 60.8493 142.87 61.1161 142.386 61.5699C141.902 62.0237 141.595 62.635 141.52 63.2946C141.435 63.5961 141.415 63.9124 141.462 64.222C141.51 64.5317 141.622 64.8276 141.793 65.09C141.964 65.3524 142.189 65.5754 142.452 65.7437C142.716 65.9121 143.013 66.0218 143.323 66.066Z" fill="white"/>
<path opacity="0.9" d="M138.92 76.4796C139.689 76.4484 140.437 76.2165 141.089 75.8064C141.741 75.3964 142.275 74.8226 142.638 74.1422C142.815 73.9149 142.929 73.6435 142.965 73.3569C143.001 73.0703 142.958 72.7793 142.842 72.5149C142.726 72.2506 142.54 72.0227 142.305 71.8557C142.069 71.6888 141.793 71.5887 141.505 71.5667C140.801 71.5776 140.113 71.7801 139.515 72.1524C138.917 72.5246 138.431 73.0527 138.109 73.6802C137.312 75.1639 137.676 76.3536 138.92 76.4796Z" fill="white"/>
<path opacity="0.9" d="M134.056 87.8314C134.766 87.8343 135.457 87.6047 136.025 87.1777C136.593 86.7506 137.005 86.1497 137.2 85.466C137.76 83.9683 137.298 82.5963 136.082 82.4424C135.353 82.4628 134.648 82.7075 134.063 83.1433C133.478 83.579 133.041 84.1847 132.812 84.8778C132.253 86.3615 132.84 87.6634 134.056 87.8314Z" fill="white"/>
<path opacity="0.9" d="M129.387 96.3135C129.291 96.637 129.259 96.9763 129.294 97.3121C129.329 97.6478 129.43 97.9733 129.591 98.2699C129.752 98.5665 129.97 98.8283 130.233 99.0402C130.495 99.2521 130.797 99.4098 131.12 99.5046C131.455 99.5432 131.795 99.5141 132.118 99.4188C132.442 99.3235 132.743 99.1641 133.004 98.9499C133.265 98.7358 133.48 98.4716 133.636 98.1725C133.793 97.8735 133.888 97.5458 133.916 97.2092C134.023 96.8904 134.066 96.5534 134.042 96.2179C134.018 95.8823 133.929 95.5548 133.778 95.2542C133.627 94.9536 133.418 94.6859 133.164 94.4665C132.909 94.2471 132.614 94.0803 132.294 93.9758C131.608 93.939 130.931 94.1573 130.395 94.5885C129.858 95.0198 129.5 95.634 129.387 96.3135Z" fill="white"/>
<path opacity="0.9" d="M127.5 107.945C127.433 108.69 127.612 109.437 128.012 110.07C128.411 110.702 129.007 111.185 129.709 111.444C131.106 111.85 132.211 110.884 132.322 109.303C132.409 108.564 132.247 107.817 131.862 107.181C131.477 106.545 130.892 106.055 130.198 105.789C129.875 105.721 129.541 105.725 129.22 105.802C128.9 105.878 128.599 106.024 128.342 106.23C128.084 106.436 127.875 106.697 127.729 106.993C127.584 107.29 127.506 107.615 127.5 107.945Z" fill="white"/>
<path opacity="0.9" d="M129.443 123.552C129.741 123.698 130.072 123.759 130.402 123.728C130.732 123.698 131.047 123.577 131.313 123.379C131.579 123.18 131.785 122.913 131.908 122.605C132.032 122.297 132.069 121.961 132.015 121.634C131.992 120.82 131.738 120.03 131.282 119.356C130.827 118.681 130.189 118.151 129.443 117.827C129.14 117.7 128.81 117.654 128.484 117.692C128.158 117.731 127.848 117.853 127.583 118.048C127.319 118.242 127.109 118.502 126.974 118.802C126.84 119.102 126.785 119.431 126.815 119.759C126.847 120.576 127.112 121.367 127.577 122.039C128.043 122.711 128.69 123.235 129.443 123.552Z" fill="white"/>
<path opacity="0.9" d="M129.918 135.813C131.47 136.527 132.714 135.813 132.546 134.12C132.444 133.247 132.125 132.413 131.616 131.697C131.108 130.98 130.428 130.403 129.639 130.018C128.115 129.388 126.927 130.13 126.983 131.684C127.091 132.562 127.415 133.4 127.928 134.121C128.441 134.842 129.125 135.424 129.918 135.813Z" fill="white"/>
<path opacity="0.9" d="M130.897 148.536C132.504 149.362 133.692 148.62 133.469 146.941C133.318 146.008 132.955 145.122 132.407 144.352C131.859 143.583 131.142 142.95 130.31 142.504C128.716 141.72 127.514 142.391 127.668 144.029C127.841 144.973 128.22 145.866 128.778 146.645C129.336 147.425 130.06 148.07 130.897 148.536Z" fill="white"/>
<path opacity="0.9" d="M131.819 155.437C130.226 154.569 129.15 155.199 129.457 156.935C129.761 158.118 130.408 159.185 131.316 160H135.146C134.684 158.098 133.488 156.457 131.819 155.437Z" fill="white"/>
<path opacity="0.9" d="M140.541 6.10352e-05H139.73C139.841 0.11523 139.991 0.184927 140.15 0.195869C140.226 0.196995 140.301 0.179738 140.369 0.145636C140.437 0.111533 140.496 0.061734 140.541 6.10352e-05Z" fill="white"/>
<path opacity="0.9" d="M143.588 15.1726C144.371 15.2706 144.664 14.2209 144.049 12.1213C143.434 10.0218 142.414 8.21606 141.687 8.16007C140.96 8.10409 140.793 9.75587 141.338 11.7994C141.883 13.843 142.749 15.0606 143.588 15.1726Z" fill="white"/>
<path opacity="0.9" d="M147.781 29.2257C148.718 29.4356 149.025 28.1762 148.424 26.3286C147.823 24.481 146.635 22.7451 145.782 22.5771C144.93 22.4091 144.65 23.8508 145.167 25.6564C145.685 27.462 146.803 28.9737 147.781 29.2257Z" fill="white"/>
<path opacity="0.9" d="M149.864 36.6583C148.844 36.3923 148.466 37.7081 148.816 39.4577C148.952 40.2397 149.268 40.9792 149.738 41.6181C150.209 42.2569 150.821 42.7778 151.527 43.1391C152.618 43.447 153.149 42.3131 152.659 40.4934C152.17 38.6738 150.898 36.9242 149.864 36.6583Z" fill="white"/>
<path opacity="0.9" d="M151.234 52.7687C151.286 53.5334 151.541 54.2702 151.97 54.9045C152.4 55.5388 152.99 56.0481 153.68 56.3801C154.882 56.758 155.762 55.806 155.539 54.1124C155.448 53.3118 155.164 52.5454 154.711 51.8796C154.258 51.2137 153.65 50.6685 152.939 50.2912C151.779 49.9693 151.052 51.0751 151.234 52.7687Z" fill="white"/>
<path opacity="0.9" d="M153.749 62.8046C152.519 62.3847 151.429 63.3647 151.219 64.8344C151.09 65.5091 151.198 66.2075 151.524 66.812C151.85 67.4164 152.374 67.8897 153.009 68.1515C153.311 68.2692 153.637 68.3135 153.96 68.2807C154.283 68.2479 154.593 68.1387 154.866 67.9626C155.139 67.7864 155.366 67.5482 155.529 67.2671C155.692 66.9861 155.786 66.6704 155.804 66.3459C155.892 65.6122 155.739 64.8699 155.369 64.2309C154.998 63.592 154.43 63.0912 153.749 62.8046Z" fill="white"/>
<path opacity="0.9" d="M148.242 78.4536C148.978 78.5678 149.732 78.458 150.404 78.1385C151.077 77.8191 151.639 77.3047 152.016 76.6619C152.204 76.4172 152.33 76.1315 152.386 75.8281C152.441 75.5248 152.424 75.2124 152.335 74.9171C152.246 74.6218 152.089 74.3521 151.875 74.1297C151.662 73.9074 151.399 73.7388 151.108 73.6383C150.439 73.4964 149.742 73.572 149.118 73.854C148.495 74.1359 147.978 74.6096 147.642 75.2062C146.747 76.5639 147.054 78.0617 148.242 78.4536Z" fill="white"/>
<path opacity="0.9" d="M145.251 84.4162C144.553 84.3197 143.843 84.4808 143.254 84.8696C142.665 85.2585 142.237 85.8485 142.051 86.5297C141.9 86.8291 141.811 87.1555 141.79 87.49C141.768 87.8245 141.814 88.1599 141.925 88.4762C142.036 88.7924 142.21 89.083 142.435 89.3305C142.661 89.578 142.934 89.7776 143.239 89.9169C143.912 90.023 144.601 89.8698 145.166 89.488C145.732 89.1063 146.132 88.5245 146.286 87.8594C146.845 86.3617 146.384 84.7801 145.251 84.4162Z" fill="white"/>
<path opacity="0.9" d="M141.617 96.2715C140.429 95.8936 139.171 96.9011 138.906 98.4968C138.747 99.2073 138.837 99.9509 139.16 100.603C139.483 101.255 140.02 101.777 140.681 102.08C141.911 102.472 143.029 101.506 143.281 99.8825C143.45 99.1809 143.378 98.4428 143.076 97.7874C142.774 97.132 142.26 96.598 141.617 96.2715Z" fill="white"/>
<path opacity="0.9" d="M139.982 114.762C141.296 115.21 142.33 114.23 142.344 112.55C142.382 111.766 142.193 110.988 141.798 110.31C141.404 109.632 140.821 109.083 140.122 108.729C138.85 108.309 137.718 109.303 137.662 110.955C137.63 111.748 137.833 112.533 138.246 113.21C138.659 113.888 139.263 114.428 139.982 114.762Z" fill="white"/>
<path opacity="0.9" d="M140.164 121.606C138.766 121.116 137.704 122.068 137.788 123.748C137.853 124.608 138.146 125.436 138.638 126.144C139.129 126.853 139.801 127.417 140.583 127.779C141.981 128.311 143.029 127.345 142.903 125.623C142.836 124.773 142.547 123.955 142.067 123.25C141.586 122.546 140.93 121.979 140.164 121.606Z" fill="white"/>
<path opacity="0.9" d="M141.771 140.95C143.294 141.566 144.371 140.642 144.175 138.907C144.054 138.012 143.716 137.162 143.189 136.429C142.663 135.697 141.965 135.106 141.156 134.707C139.674 134.134 138.57 135.015 138.724 136.709C138.849 137.611 139.192 138.468 139.723 139.207C140.254 139.946 140.957 140.545 141.771 140.95Z" fill="white"/>
<path opacity="0.9" d="M143.155 154.359C144.748 155.045 145.852 154.121 145.657 152.372C145.511 151.446 145.146 150.568 144.591 149.813C144.037 149.058 143.309 148.447 142.47 148.033C140.89 147.375 139.758 148.214 139.94 149.95C140.088 150.888 140.456 151.777 141.015 152.544C141.574 153.311 142.308 153.933 143.155 154.359Z" fill="white"/>
<path opacity="0.9" d="M145.685 2.04357C146.412 2.49148 146.817 1.59572 146.775 6.10352e-05H144.357C144.58 0.801415 145.043 1.51474 145.685 2.04357Z" fill="white"/>
<path opacity="0.9" d="M147.572 10.3017C146.733 9.78381 146.565 11.1697 147.25 13.3253C147.676 15.0061 148.62 16.5095 149.948 17.6221C150.828 18.168 151.136 17.4682 150.381 15.2567C149.87 13.3969 148.905 11.6938 147.572 10.3017Z" fill="white"/>
<path opacity="0.9" d="M155.79 30.0797C155.172 28.284 154.115 26.6717 152.715 25.3906C151.751 24.8027 151.541 25.9785 152.212 27.8821C152.774 29.6388 153.827 31.1977 155.245 32.3751C156.251 33.0049 156.517 32.0253 155.79 30.0797Z" fill="white"/>
<path opacity="0.9" d="M157.943 40.1714C156.866 39.5136 156.545 40.5912 157.062 42.4528C157.571 44.2469 158.626 45.8372 160.081 47.0018C161.213 47.7017 161.702 46.8479 161.087 44.9443C160.513 43.0863 159.423 41.4308 157.943 40.1714Z" fill="white"/>
<path opacity="0.9" d="M161.954 54.4064C160.766 53.6645 160.109 54.6025 160.389 56.3241C160.658 58.0653 161.596 59.632 163.002 60.691C164.218 61.4468 165.057 60.7751 164.75 59.0254C164.397 57.2014 163.406 55.5633 161.954 54.4064Z" fill="white"/>
<path opacity="0.9" d="M165.239 71.5106C165.291 70.6995 165.136 69.8887 164.789 69.1541C164.442 68.4194 163.914 67.7851 163.254 67.3115C162.024 66.5416 160.976 67.3115 160.78 68.7112C160.688 69.4623 160.801 70.2247 161.106 70.917C161.411 71.6094 161.897 72.2061 162.513 72.6444C163.743 73.4283 165.043 73.0083 165.239 71.5106Z" fill="white"/>
<path opacity="0.9" d="M161.046 81.5748C161.252 81.3065 161.4 80.9974 161.479 80.6682C161.558 80.3389 161.567 79.9967 161.505 79.6638C161.443 79.3309 161.311 79.015 161.119 78.7364C160.927 78.4578 160.678 78.2232 160.389 78.0475C159.796 77.7143 159.099 77.6198 158.439 77.7837C157.779 77.9475 157.207 78.3572 156.838 78.9291C156.606 79.1856 156.429 79.4883 156.321 79.8176C156.213 80.1469 156.176 80.4956 156.211 80.8404C156.247 81.1852 156.355 81.5186 156.528 81.8187C156.701 82.1189 156.935 82.3792 157.216 82.5825C157.871 82.8904 158.613 82.958 159.313 82.7739C160.013 82.5897 160.626 82.1654 161.046 81.5748Z" fill="white"/>
<path opacity="0.9" d="M155.035 91.9605C155.331 91.3165 155.398 90.5904 155.226 89.903C155.053 89.2156 154.65 88.6083 154.085 88.1814C153.778 88.0525 153.446 87.9919 153.113 88.0037C152.78 88.0155 152.453 88.0994 152.156 88.2497C151.858 88.4001 151.597 88.6132 151.389 88.8744C151.182 89.1357 151.033 89.4387 150.954 89.7629C150.681 90.422 150.646 91.156 150.855 91.8382C151.064 92.5204 151.505 93.1084 152.1 93.5003C153.218 94.1442 154.49 93.4582 155.035 91.9605Z" fill="white"/>
<path opacity="0.9" d="M150.577 99.8128C149.431 99.2669 148.256 100.149 148.047 101.758C147.937 102.509 148.053 103.276 148.379 103.961C148.705 104.646 149.227 105.219 149.878 105.607C151.066 106.139 152.086 105.285 152.268 103.69C152.379 102.949 152.279 102.193 151.98 101.507C151.681 100.821 151.194 100.234 150.577 99.8128Z" fill="white"/>
<path opacity="0.9" d="M149.962 118.443C151.234 118.947 152.142 117.967 152.058 116.287C152.036 115.481 151.811 114.694 151.402 113.999C150.994 113.303 150.417 112.723 149.724 112.312C148.494 111.808 147.488 112.774 147.53 114.468C147.542 115.288 147.775 116.089 148.202 116.788C148.63 117.488 149.238 118.059 149.962 118.443Z" fill="white"/>
<path opacity="0.9" d="M151.359 131.754C152.757 132.244 153.652 131.208 153.4 129.473C153.295 128.624 152.986 127.814 152.499 127.112C152.012 126.409 151.362 125.836 150.605 125.441C149.207 124.937 148.312 125.945 148.508 127.681C148.605 128.544 148.917 129.37 149.415 130.081C149.913 130.793 150.582 131.368 151.359 131.754Z" fill="white"/>
<path opacity="0.9" d="M153.372 145.247C154.854 145.737 155.832 144.673 155.539 142.923C155.388 142.044 155.023 141.215 154.477 140.51C153.932 139.804 153.221 139.244 152.408 138.878C151.01 138.389 149.99 139.396 150.227 141.146C150.367 142.038 150.729 142.881 151.278 143.598C151.827 144.314 152.547 144.881 153.372 145.247Z" fill="white"/>
<path opacity="0.9" d="M155.189 158.754C156.727 159.216 157.803 158.125 157.565 156.389C157.421 155.505 157.051 154.674 156.49 153.977C155.929 153.28 155.196 152.742 154.364 152.414C152.841 151.938 151.779 152.932 151.988 154.695C152.116 155.595 152.479 156.445 153.041 157.158C153.604 157.871 154.345 158.422 155.189 158.754Z" fill="white"/>
<path opacity="0.9" d="M151.974 1.06374C150.996 0.0559573 150.143 0.727596 150.269 2.5892C150.447 4.50389 151.192 6.32177 152.408 7.81006C153.624 9.0558 154.434 8.38405 154.309 6.52245C154.127 4.50132 153.31 2.59014 151.974 1.06374Z" fill="white"/>
<path opacity="0.9" d="M154.616 16.2643C153.61 15.2425 153.386 16.2644 154.197 18.4759C154.875 20.4408 155.939 22.2495 157.328 23.7949C158.544 25.0266 159.103 24.6907 158.292 22.3952C157.44 20.1494 156.195 18.0734 154.616 16.2643Z" fill="white"/>
<path opacity="0.9" d="M160.011 33.5369C160.826 35.552 161.98 37.4123 163.422 39.0376C164.638 40.2414 165.015 39.5414 164.218 37.5539C163.307 35.4471 162.05 33.5077 160.5 31.8153C159.424 30.7375 159.214 31.5493 160.011 33.5369Z" fill="white"/>
<path opacity="0.9" d="M165.728 48.6537C166.068 49.5871 166.494 50.4867 167 51.341V47.5619L166.567 47.0999C165.407 45.9521 165.071 46.7221 165.728 48.6537Z" fill="white"/>
<path opacity="0.9" d="M167 84.4999C166.463 84.6164 165.976 84.895 165.602 85.2978C165.353 85.5687 165.16 85.8862 165.033 86.2321C164.907 86.5779 164.849 86.9453 164.865 87.3133C164.881 87.6813 164.969 88.0425 165.124 88.3764C165.279 88.7103 165.499 89.0103 165.77 89.2591C166.106 89.5783 166.506 89.8217 166.944 89.9729L167 84.4999Z" fill="white"/>
<path opacity="0.9" d="M163.869 98.3854C164.097 97.6343 164.093 96.8319 163.859 96.0828C163.625 95.3338 163.17 94.6729 162.555 94.1863C162.324 93.9706 162.042 93.8174 161.735 93.7413C161.429 93.6653 161.108 93.6689 160.803 93.7516C160.498 93.8342 160.219 93.9934 159.992 94.2139C159.766 94.4345 159.599 94.7089 159.508 95.0119C159.264 95.7056 159.236 96.4574 159.428 97.1675C159.62 97.8775 160.024 98.5122 160.585 98.9871C160.815 99.2234 161.1 99.3992 161.414 99.4994C161.728 99.5996 162.062 99.621 162.387 99.5616C162.711 99.5021 163.016 99.3638 163.275 99.1587C163.533 98.9536 163.737 98.6881 163.869 98.3854Z" fill="white"/>
<path opacity="0.9" d="M158.837 110.157C160.235 110.982 161.381 110.381 161.493 108.925C161.495 108.098 161.295 107.282 160.91 106.55C160.525 105.818 159.967 105.192 159.285 104.726C158.194 103.984 157.09 104.628 156.95 106.126C156.891 106.903 157.033 107.684 157.364 108.39C157.695 109.096 158.202 109.705 158.837 110.157Z" fill="white"/>
<path opacity="0.9" d="M159.592 122.418C160.99 123.048 162.01 122.264 161.828 120.682C161.693 119.831 161.373 119.019 160.89 118.306C160.407 117.592 159.773 116.994 159.033 116.553C157.859 115.951 156.95 116.805 157.09 118.457C157.167 119.267 157.433 120.049 157.868 120.737C158.303 121.425 158.893 122.001 159.592 122.418Z" fill="white"/>
<path opacity="0.9" d="M161.842 135.267C163.24 135.743 164.233 134.805 163.897 133.153C163.688 132.288 163.288 131.481 162.727 130.791C162.166 130.101 161.458 129.545 160.654 129.165C159.396 128.675 158.544 129.682 158.837 131.39C158.995 132.229 159.35 133.018 159.872 133.692C160.395 134.366 161.07 134.906 161.842 135.267Z" fill="white"/>
<path opacity="0.9" d="M164.554 148.327C166.049 148.649 167.014 147.571 166.637 145.905C166.421 145.053 166 144.266 165.41 143.615C164.821 142.963 164.08 142.466 163.254 142.168C161.856 141.804 160.99 142.882 161.325 144.618C161.494 145.464 161.881 146.251 162.447 146.902C163.014 147.552 163.74 148.044 164.554 148.327Z" fill="white"/>
<path opacity="0.9" d="M167 155.563C166.668 155.378 166.31 155.245 165.938 155.171C164.456 154.933 163.478 156.081 163.729 157.775C163.87 158.604 164.243 159.376 164.806 160H167V155.563Z" fill="white"/>
<path opacity="0.9" d="M163.813 2.88351C164.281 3.2086 164.837 3.38277 165.406 3.38277C165.976 3.38277 166.532 3.2086 167 2.88351V0.0841064H162.36C162.354 0.634249 162.484 1.17715 162.738 1.66526C162.991 2.15338 163.36 2.57177 163.813 2.88351Z" fill="white"/>
<path opacity="0.9" d="M162.723 16.2085C164.12 17.1603 165.015 16.2088 164.889 14.4032C164.822 13.4426 164.555 12.5067 164.105 11.6558C163.654 10.8048 163.031 10.0576 162.276 9.46223C160.878 8.51043 159.662 9.09806 159.788 10.9597C160.045 13.0258 161.098 14.9095 162.723 16.2085Z" fill="white"/>
<path opacity="0.9" d="M164.792 24.6065C163.394 23.6687 162.849 24.6066 163.645 26.8321C164.33 28.7358 165.484 30.4354 167 31.7731V26.9863C166.406 26.0715 165.659 25.2662 164.792 24.6065Z" fill="white"/>
</g>
</g>
<defs>
<clipPath id="clip0_207_351">
<rect width="167" height="160" fill="white"/>
</clipPath>
</defs>
</svg>
