<svg width="498" height="102" viewBox="0 0 498 102" fill="none" xmlns="http://www.w3.org/2000/svg">
<path d="M496.887 33.4011C497.109 36.5771 495.643 39.8277 492.576 43.1165C489.51 46.405 484.865 49.7073 478.791 52.976C466.644 59.5127 448.836 65.8872 426.669 71.7484C382.34 83.4698 320.631 93.1256 252.051 97.9342C183.47 102.743 121.017 101.793 75.4862 96.3721C52.7185 93.6616 34.195 89.8345 21.2551 85.0569C14.7844 82.6677 9.72408 80.0459 6.22883 77.2175C2.73336 74.3889 0.827658 71.3747 0.60497 68.1987C0.382281 65.0227 1.84872 61.7721 4.91526 58.4834C7.98161 55.1949 12.6265 51.8926 18.7006 48.6238C30.8471 42.0872 48.6554 35.7127 70.822 29.8515C115.151 18.1301 176.861 8.47426 245.441 3.66565C314.021 -1.14297 376.474 -0.192967 422.005 5.2277C444.773 7.93829 463.297 11.7653 476.236 16.543C482.707 18.9321 487.767 21.5539 491.263 24.3824C494.758 27.211 496.664 30.2252 496.887 33.4011Z" stroke="white" stroke-width="0.5"/>
</svg>
