<svg width="247" height="43" viewBox="0 0 247 43" fill="none" xmlns="http://www.w3.org/2000/svg">
<g clip-path="url(#clip0_347_1210)">
<path d="M75.019 29.9724C74.9587 30.0348 74.8863 30.0841 74.8065 30.1171C74.7266 30.1501 74.6409 30.1661 74.5547 30.1642H71.8372C71.6929 30.1579 71.5527 30.1139 71.4302 30.0364C71.2754 29.9521 71.2353 29.9085 71.3012 29.9085L66.4281 24.4074L61.3258 29.9085C61.2655 29.9933 61.1849 30.0612 61.0917 30.1059C60.9984 30.1506 60.8956 30.1707 60.7926 30.1642H58.1984C58.1122 30.1661 58.0265 30.1501 57.9466 30.1171C57.8668 30.0841 57.7944 30.0348 57.7341 29.9724C57.6722 29.9102 57.6234 29.8359 57.5909 29.754C57.5584 29.672 57.5427 29.5842 57.5449 29.4959V13.8035C57.542 13.6218 57.61 13.4463 57.7341 13.3153C57.7925 13.2493 57.8642 13.1967 57.9442 13.1612C58.0243 13.1256 58.111 13.1078 58.1984 13.1089H60.205C60.2924 13.1078 60.3791 13.1256 60.4592 13.1612C60.5393 13.1967 60.6109 13.2493 60.6694 13.3153C60.7935 13.4463 60.8615 13.6218 60.8585 13.8035V25.1658L66.0412 20.1385C66.1024 20.06 66.1809 19.997 66.2703 19.9545C66.3597 19.912 66.4577 19.8912 66.5564 19.8938C66.6551 19.8963 66.7519 19.9221 66.8391 19.9691C66.9263 20.0161 67.0015 20.0831 67.0588 20.1646L71.8802 25.0496V13.8151C71.8773 13.6335 71.9453 13.458 72.0694 13.3269C72.1278 13.2609 72.1995 13.2084 72.2796 13.1728C72.3597 13.1372 72.4463 13.1194 72.5338 13.1206H74.5403C74.6278 13.1194 74.7144 13.1372 74.7945 13.1728C74.8746 13.2084 74.9463 13.2609 75.0047 13.3269C75.1288 13.458 75.1968 13.6335 75.1939 13.8151V29.5075C75.1964 29.5929 75.1822 29.6779 75.1522 29.7577C75.1222 29.8375 75.077 29.9104 75.019 29.9724Z" fill="white"/>
<path d="M100.797 29.9608C100.735 30.0263 100.66 30.0782 100.577 30.1132C100.495 30.1482 100.406 30.1656 100.316 30.1643H89.0648C88.3894 30.1691 87.7202 30.0335 87.0984 29.7661C86.5016 29.5151 85.9562 29.1535 85.4903 28.6997C85.0211 28.2397 84.6487 27.6882 84.3954 27.0784C84.1422 26.4686 84.0135 25.8131 84.0169 25.1515C84.0134 24.4896 84.1431 23.8341 84.3981 23.2248C84.7062 23.0985 84.9699 22.8816 85.1557 22.6023C85.3414 22.323 85.4406 21.9939 85.4406 21.657C85.4406 21.3202 85.3414 20.9909 85.1557 20.7116C84.9699 20.4323 84.7062 20.2156 84.3981 20.0892C84.0199 19.1681 83.9219 18.1534 84.1164 17.1753C84.311 16.1972 84.7895 15.3003 85.4903 14.5998C85.9548 14.1405 86.5003 13.7739 87.0984 13.5188C87.7206 13.2528 88.3895 13.1173 89.0648 13.1207H100.324C100.414 13.1201 100.503 13.1378 100.586 13.1727C100.668 13.2077 100.743 13.2591 100.806 13.324C100.871 13.3866 100.922 13.4619 100.957 13.5454C100.992 13.6288 101.01 13.7187 101.009 13.8094V15.489C101.007 15.6717 100.933 15.8461 100.805 15.9747C100.677 16.1034 100.505 16.1763 100.324 16.1778H89.0648C88.8355 16.1764 88.609 16.2279 88.4023 16.3286C88.1957 16.4293 88.0144 16.5766 87.8724 16.759C87.5608 17.1564 87.3911 17.6491 87.3911 18.1568C87.3911 18.6644 87.5608 19.1572 87.8724 19.5546C88.0162 19.734 88.1981 19.8782 88.4046 19.9763C88.6111 20.0744 88.8368 20.1239 89.0648 20.1212H96.9505C97.0404 20.1204 97.1295 20.1385 97.2124 20.1739C97.2952 20.2094 97.37 20.2616 97.4321 20.3275C97.4967 20.3908 97.548 20.4666 97.5829 20.5505C97.6179 20.6344 97.6358 20.7247 97.6356 20.8157V22.5128C97.6372 22.6024 97.6199 22.6912 97.5848 22.7734C97.5497 22.8557 97.4976 22.9293 97.4321 22.9894C97.3028 23.1152 97.1297 23.1842 96.9505 23.1813H89.0648C88.8355 23.1798 88.609 23.2314 88.4023 23.3321C88.1957 23.4328 88.0144 23.58 87.8724 23.7625C87.5494 24.1546 87.3782 24.6524 87.3908 25.1631C87.3762 25.6706 87.5478 26.1654 87.8724 26.5521C88.0167 26.7305 88.1989 26.8736 88.4054 26.9707C88.6118 27.0678 88.8372 27.1164 89.0648 27.113H100.324C100.504 27.11 100.677 27.179 100.806 27.3048C100.871 27.365 100.924 27.4386 100.959 27.5208C100.994 27.603 101.011 27.6918 101.009 27.7813V29.4785C101.008 29.5693 100.989 29.6589 100.952 29.7419C100.916 29.8248 100.863 29.8992 100.797 29.9608Z" fill="white"/>
<path d="M127.702 25.1514C127.707 25.813 127.579 26.4687 127.326 27.0787C127.074 27.6886 126.701 28.2401 126.232 28.6997C125.765 29.1535 125.218 29.5151 124.621 29.7661C123.999 30.0335 123.33 30.169 122.654 30.1643H111.016C110.836 30.1628 110.663 30.0895 110.535 29.9602C110.407 29.8309 110.334 29.6559 110.331 29.4727V13.8152C110.334 13.6317 110.406 13.4563 110.534 13.3265C110.662 13.1968 110.835 13.1229 111.016 13.1207H121.794C122.469 13.1176 123.137 13.2531 123.758 13.5188C124.357 13.7739 124.903 14.1405 125.369 14.5998C125.828 15.0588 126.195 15.6049 126.447 16.2069C126.923 17.3498 126.968 18.6302 126.573 19.8044C126.396 20.3175 126.135 20.7962 125.799 21.2197C126.391 21.6642 126.87 22.2461 127.195 22.9168C127.535 23.6108 127.709 24.3764 127.702 25.1514ZM123.417 18.148C123.431 17.6353 123.254 17.1361 122.921 16.7502C122.78 16.5702 122.601 16.4245 122.397 16.3239C122.193 16.2233 121.97 16.1704 121.743 16.169H114.364C114.277 16.1666 114.19 16.1827 114.109 16.2162C114.028 16.2497 113.955 16.2999 113.894 16.3636C113.832 16.4263 113.783 16.5011 113.751 16.5836C113.718 16.666 113.703 16.7545 113.705 16.8433V19.4296C113.703 19.5183 113.719 19.6064 113.752 19.6888C113.784 19.7712 113.833 19.8461 113.894 19.909C113.956 19.9718 114.029 20.0212 114.11 20.0542C114.191 20.0872 114.277 20.1031 114.364 20.1009H121.743C121.968 20.1008 122.191 20.0499 122.395 19.9519C122.599 19.8539 122.778 19.7112 122.921 19.5341C123.251 19.1512 123.428 18.6566 123.417 18.148ZM124.277 25.1514C124.288 24.641 124.117 24.1436 123.795 23.7508C123.653 23.5686 123.472 23.4214 123.265 23.3207C123.058 23.22 122.832 23.1684 122.603 23.1696H114.364C114.276 23.168 114.188 23.1855 114.107 23.2211C114.026 23.2567 113.954 23.3095 113.894 23.3759C113.77 23.507 113.702 23.6824 113.705 23.864V26.4098C113.702 26.5914 113.77 26.7668 113.894 26.8979C113.954 26.9643 114.026 27.0171 114.107 27.0527C114.188 27.0883 114.276 27.1059 114.364 27.1043H122.603C122.831 27.1068 123.056 27.0571 123.263 26.959C123.469 26.8609 123.651 26.7169 123.795 26.5376C124.119 26.1514 124.291 25.6581 124.28 25.1514H124.277Z" fill="white"/>
<path d="M153.137 25.1514C153.14 25.8191 153.006 26.4802 152.744 27.0926C152.489 27.6899 152.123 28.2316 151.666 28.688C151.201 29.1473 150.655 29.5131 150.055 29.7661C149.433 30.0335 148.764 30.169 148.089 30.1642H137.465C137.377 30.1662 137.29 30.1491 137.209 30.114C137.128 30.0789 137.055 30.0266 136.995 29.9608C136.871 29.8297 136.803 29.6543 136.806 29.4726V27.7754C136.804 27.6871 136.82 27.5993 136.852 27.5173C136.885 27.4354 136.933 27.361 136.995 27.2985C137.057 27.2361 137.13 27.1868 137.211 27.1539C137.292 27.1211 137.378 27.1051 137.465 27.1071H148.089C148.314 27.1049 148.536 27.0522 148.739 26.9527C148.941 26.8533 149.12 26.7095 149.261 26.5317C149.591 26.1476 149.767 25.652 149.754 25.1427C149.767 24.63 149.591 24.1308 149.261 23.742C149.12 23.5617 148.94 23.416 148.736 23.3154C148.531 23.2148 148.307 23.1619 148.08 23.1608H141.37C140.694 23.1653 140.025 23.0298 139.403 22.7626C138.807 22.5105 138.262 22.149 137.795 21.6961C137.091 20.9954 136.611 20.0956 136.419 19.1142C136.226 18.1329 136.331 17.1156 136.717 16.1952C136.967 15.592 137.334 15.0456 137.795 14.5881C138.26 14.1288 138.805 13.7622 139.403 13.5071C140.026 13.2414 140.694 13.1059 141.37 13.109H152.222C152.31 13.1076 152.398 13.1249 152.479 13.1599C152.56 13.195 152.632 13.2469 152.692 13.3123C152.816 13.4426 152.884 13.6171 152.881 13.7977V17.2994C152.888 17.3931 152.875 17.4871 152.844 17.5755C152.813 17.664 152.764 17.745 152.701 17.8138C152.642 17.8806 152.569 17.9336 152.488 17.9693C152.407 18.0049 152.319 18.0223 152.231 18.0201H150.456C150.366 18.0215 150.277 18.0039 150.194 17.9684C150.111 17.9329 150.037 17.8802 149.975 17.8138C149.91 17.7507 149.858 17.6749 149.823 17.591C149.788 17.507 149.771 17.4166 149.771 17.3255V16.8635C149.773 16.7752 149.758 16.6874 149.725 16.6054C149.693 16.5234 149.644 16.4489 149.583 16.3864C149.521 16.324 149.448 16.2749 149.367 16.242C149.286 16.2091 149.199 16.1932 149.112 16.1952H141.373C141.143 16.1938 140.917 16.2453 140.71 16.346C140.503 16.4467 140.322 16.594 140.18 16.7764C139.868 17.1738 139.699 17.6665 139.699 18.1742C139.699 18.6818 139.868 19.1744 140.18 19.5718C140.324 19.7513 140.506 19.8954 140.712 19.9935C140.919 20.0917 141.144 20.1413 141.373 20.1386H148.092C148.767 20.1347 149.436 20.2712 150.058 20.5395C150.657 20.7925 151.204 21.1583 151.669 21.6177C152.127 22.0778 152.493 22.6236 152.747 23.2248C153.004 23.8338 153.136 24.4891 153.137 25.1514Z" fill="white"/>
<path d="M179.053 29.9608C178.99 30.0262 178.916 30.0782 178.833 30.1131C178.75 30.1481 178.661 30.1655 178.571 30.1642H176.565C176.384 30.1627 176.211 30.0895 176.083 29.9602C175.955 29.8309 175.882 29.6559 175.879 29.4726V27.3628C175.882 27.1811 175.814 27.0058 175.69 26.8747C175.631 26.8083 175.558 26.7555 175.477 26.7199C175.396 26.6843 175.309 26.6668 175.22 26.6684H166.475C166.386 26.6672 166.299 26.6849 166.218 26.7205C166.137 26.756 166.064 26.8086 166.004 26.8747C165.88 27.0058 165.812 27.1811 165.815 27.3628V29.4726C165.813 29.6559 165.74 29.8309 165.612 29.9602C165.484 30.0895 165.311 30.1627 165.13 30.1642H163.124C162.943 30.1627 162.77 30.0895 162.642 29.9602C162.514 29.8309 162.441 29.6559 162.438 29.4726V13.8152C162.441 13.6317 162.514 13.4563 162.642 13.3265C162.77 13.1967 162.943 13.1229 163.124 13.1206H165.13C165.311 13.1229 165.484 13.1967 165.612 13.3265C165.74 13.4563 165.813 13.6317 165.815 13.8152V22.9167C165.812 23.0984 165.88 23.2739 166.004 23.405C166.064 23.4711 166.137 23.5236 166.218 23.5592C166.299 23.5948 166.386 23.6125 166.475 23.6113H175.223C175.311 23.6129 175.399 23.5952 175.48 23.5596C175.561 23.524 175.634 23.4714 175.693 23.405C175.817 23.2739 175.885 23.0984 175.882 22.9167V13.8152C175.885 13.6317 175.957 13.4563 176.085 13.3265C176.213 13.1967 176.386 13.1229 176.567 13.1206H178.574C178.755 13.1229 178.928 13.1967 179.056 13.3265C179.184 13.4563 179.257 13.6317 179.259 13.8152V29.4726C179.259 29.564 179.241 29.6544 179.206 29.7384C179.17 29.8224 179.118 29.898 179.053 29.9608Z" fill="white"/>
<path d="M221.032 15.9774C220.97 16.0428 220.895 16.0946 220.812 16.1296C220.73 16.1646 220.641 16.182 220.551 16.1807H209.495C209.265 16.1791 209.039 16.2307 208.832 16.3314C208.625 16.4321 208.444 16.5793 208.302 16.7619C207.991 17.1593 207.821 17.652 207.821 18.1597C207.821 18.6674 207.991 19.1601 208.302 19.5575C208.446 19.7371 208.628 19.8814 208.834 19.9795C209.041 20.0776 209.267 20.1272 209.495 20.1242H217.197C217.285 20.123 217.373 20.1407 217.454 20.1763C217.535 20.2119 217.608 20.2644 217.667 20.3305C217.79 20.4623 217.858 20.6372 217.856 20.8187V22.5159C217.858 22.6042 217.843 22.692 217.81 22.774C217.778 22.8559 217.729 22.9304 217.668 22.9929C217.606 23.0554 217.532 23.1045 217.452 23.1373C217.371 23.1702 217.284 23.1862 217.197 23.1842H209.824C209.595 23.1823 209.368 23.2337 209.162 23.3344C208.955 23.4352 208.774 23.5826 208.632 23.7654C208.309 24.1575 208.138 24.6553 208.15 25.166V29.4873C208.148 29.6705 208.075 29.8455 207.947 29.9748C207.819 30.1041 207.646 30.1773 207.465 30.1789H205.459C205.278 30.1773 205.105 30.1041 204.977 29.9748C204.849 29.8455 204.776 29.6705 204.774 29.4873V25.166C204.769 24.5407 204.886 23.9206 205.118 23.3411C205.339 22.786 205.652 22.273 206.043 21.8241C205.547 21.3732 205.15 20.8219 204.877 20.2055C204.587 19.568 204.439 18.8734 204.444 18.1713C204.442 17.5 204.575 16.8352 204.837 16.2184C205.089 15.6165 205.455 15.0706 205.914 14.6115C206.38 14.1522 206.927 13.7854 207.525 13.5304C208.148 13.2643 208.817 13.129 209.492 13.1324H220.548C220.638 13.1318 220.726 13.1495 220.809 13.1845C220.892 13.2194 220.967 13.2708 221.03 13.3357C221.094 13.3983 221.146 13.4736 221.181 13.5571C221.216 13.6405 221.233 13.7303 221.233 13.821V15.4891C221.234 15.5801 221.217 15.6703 221.183 15.7543C221.148 15.8383 221.097 15.9142 221.032 15.9774Z" fill="white"/>
<path d="M246.797 13.3269C246.734 13.2612 246.659 13.209 246.577 13.1736C246.494 13.1381 246.405 13.1201 246.315 13.1206H230.185C230.095 13.1199 230.006 13.1378 229.923 13.1733C229.841 13.2088 229.766 13.2611 229.704 13.3269C229.639 13.3893 229.588 13.4646 229.553 13.5482C229.519 13.6317 229.501 13.7216 229.503 13.8122V18.1712C229.505 18.3544 229.577 18.5298 229.704 18.6596C229.832 18.7894 230.005 18.8635 230.185 18.8658H231.948C232.121 18.8673 232.287 18.8005 232.412 18.6798C232.48 18.6141 232.533 18.535 232.569 18.4475C232.605 18.36 232.623 18.266 232.622 18.1712V16.8751C232.62 16.7 232.686 16.5312 232.805 16.4043C232.87 16.3357 232.948 16.2815 233.034 16.245C233.12 16.2085 233.213 16.1905 233.307 16.1922H235.887C235.974 16.1902 236.061 16.2065 236.142 16.24C236.223 16.2735 236.296 16.3235 236.357 16.3869C236.419 16.4483 236.468 16.5222 236.5 16.6037C236.533 16.6852 236.548 16.7728 236.546 16.8607V29.3912C236.546 29.5993 236.627 29.7989 236.773 29.946C236.918 30.0932 237.115 30.1759 237.32 30.1759H239.143C239.348 30.1759 239.545 30.0932 239.69 29.946C239.835 29.7989 239.917 29.5993 239.917 29.3912V16.8607C239.917 16.7728 239.933 16.6857 239.966 16.6044C239.999 16.5231 240.048 16.4493 240.109 16.3872C240.17 16.325 240.243 16.2758 240.323 16.2423C240.404 16.2088 240.49 16.1918 240.576 16.1922H243.188C243.275 16.1897 243.362 16.2056 243.443 16.2392C243.524 16.2727 243.597 16.323 243.658 16.3869C243.721 16.4477 243.77 16.5214 243.804 16.603C243.837 16.6846 243.852 16.7725 243.85 16.8607V18.1712C243.849 18.2622 243.866 18.3524 243.9 18.4364C243.935 18.5204 243.986 18.5963 244.05 18.6595C244.113 18.7254 244.188 18.7777 244.272 18.8131C244.355 18.8486 244.445 18.8665 244.535 18.8658H246.309C246.49 18.8635 246.663 18.7897 246.791 18.6599C246.919 18.5301 246.992 18.3547 246.994 18.1712V13.8122C246.996 13.7219 246.979 13.6322 246.945 13.5487C246.911 13.4652 246.861 13.3897 246.797 13.3269Z" fill="white"/>
<path d="M193.124 13.1206H191.407C190.95 13.1206 190.579 13.4966 190.579 13.9604V29.3244C190.579 29.7883 190.95 30.1643 191.407 30.1643H193.124C193.582 30.1643 193.953 29.7883 193.953 29.3244V13.9604C193.953 13.4966 193.582 13.1206 193.124 13.1206Z" fill="white"/>
<path d="M87.1902 18.1597H84.0112V25.8286H87.1902V18.1597Z" fill="white"/>
<path d="M204.473 17.8079H207.652V30.1642H205.496C205.225 30.1642 204.964 30.0548 204.772 29.8603C204.58 29.6657 204.473 29.4019 204.473 29.1267V17.8079Z" fill="white"/>
<path d="M13.9626 41.4424L14.0744 41.5121C16.6141 42.2237 19.2657 42.4301 21.8828 42.1195L21.8111 42.0555C19.1805 42.3686 16.5149 42.1604 13.9626 41.4424Z" fill="white"/>
<path d="M30.7258 39.3415C30.7258 39.3676 30.743 39.3938 30.7516 39.4199C33.2396 38.1509 35.4963 36.4616 37.4248 34.4245C37.4248 34.3926 37.4248 34.3547 37.4248 34.3198C35.489 36.3669 33.2237 38.065 30.7258 39.3415Z" fill="white"/>
<path d="M22.0435 42.0265L22.1151 42.0934C23.3357 41.9456 24.5439 41.7067 25.7298 41.3785C27.3855 40.9227 28.9935 40.3048 30.5311 39.5333L30.5053 39.4548C28.9597 40.2315 27.343 40.8533 25.6782 41.3117C24.4851 41.6383 23.2704 41.8772 22.0435 42.0265Z" fill="white"/>
<path d="M37.5798 34.2588C38.5139 33.2483 39.3428 32.1431 40.0536 30.9606C40.1281 30.8153 40.1969 30.6699 40.2657 30.5159C39.5107 31.8258 38.6137 33.0462 37.5913 34.1542C37.5884 34.189 37.5856 34.2239 37.5798 34.2588Z" fill="white"/>
<path d="M41.5957 27.6389C41.739 27.2089 41.8623 26.7672 41.9626 26.3487L42.0515 25.9419C41.9389 26.4678 41.7972 26.9867 41.6272 27.4965C41.6186 27.5459 41.6072 27.5925 41.5957 27.6389Z" fill="white"/>
<path d="M41.3206 28.3335C41.2747 28.4759 41.226 28.624 41.1772 28.7547C41.3034 28.4641 41.4238 28.1416 41.5298 27.8336C41.5298 27.7871 41.5528 27.7406 41.5614 27.6941C41.4811 27.9062 41.4066 28.1213 41.3206 28.3335Z" fill="white"/>
<path d="M13.4352 41.3146L13.8623 41.4511L13.7505 41.3843C13.4954 41.3058 13.2431 41.2217 12.9966 41.1316C13.1437 41.1955 13.2899 41.2565 13.4352 41.3146Z" fill="white"/>
<path d="M2.82646 31.8612C3.16646 32.3374 3.54008 32.7881 3.94439 33.2096C3.92146 33.1544 3.9014 33.0963 3.87846 33.0382C3.42682 32.5644 3.01275 32.0552 2.64014 31.5154C2.70033 31.6316 2.76339 31.7449 2.82646 31.8612Z" fill="white"/>
<path d="M40.3345 11.9756L40.1567 11.6182C40.4925 12.276 40.7651 12.9648 40.9708 13.6755C41.0224 13.8034 41.0712 13.9341 41.117 14.062C40.9233 13.3425 40.6612 12.6438 40.3345 11.9756Z" fill="white"/>
<path d="M28.8684 34.7178L28.9429 34.8892C31.6551 33.5028 34.1151 31.6595 36.2181 29.4376C36.1923 29.3824 36.1665 29.3243 36.1378 29.269C34.0367 31.4897 31.5785 33.3321 28.8684 34.7178Z" fill="white"/>
<path d="M40.621 22.074C39.6753 24.6846 38.2119 27.071 36.3213 29.0861C36.35 29.1442 36.3758 29.1994 36.4016 29.2575C38.2924 27.2403 39.7557 24.852 40.7013 22.2396L40.621 22.074Z" fill="white"/>
<path d="M19.4319 37.6354L19.5035 37.8098C20.8363 37.6474 22.1556 37.3862 23.4507 37.0281C25.2579 36.5314 27.0129 35.8569 28.6907 35.0142C28.6677 34.9561 28.6419 34.898 28.6161 34.8398C26.9392 35.6852 25.184 36.3607 23.3762 36.8566C22.0821 37.214 20.7637 37.4743 19.4319 37.6354Z" fill="white"/>
<path d="M4.08479 33.355C5.8839 35.1223 8.08552 36.4119 10.4943 37.1095L10.4255 36.9351C8.01789 36.2403 5.81771 34.9514 4.02173 33.1836C4.04179 33.2417 4.06473 33.2998 4.08479 33.355Z" fill="white"/>
<path d="M10.6433 36.9934L10.7121 37.1648C13.4855 37.9438 16.3816 38.1698 19.2399 37.8303C19.2141 37.7722 19.1912 37.714 19.1683 37.6559C16.3111 37.9962 13.4159 37.7713 10.6433 36.9934Z" fill="white"/>
<path d="M1.27856 28.8799L1.42189 29.2548C1.42189 29.2809 1.43909 29.3012 1.44769 29.3244L1.39609 29.1879C1.35023 29.0862 1.31583 28.9845 1.27856 28.8799Z" fill="white"/>
<path d="M40.6899 21.8619C40.7186 21.9171 40.7444 21.9723 40.7702 22.0275C41.4779 19.9775 41.7037 17.7884 41.4295 15.6343C41.3922 15.5065 41.355 15.3757 41.3148 15.2478C41.3182 15.2732 41.323 15.2985 41.3292 15.3234C41.6327 17.5234 41.4135 19.7651 40.6899 21.8619Z" fill="white"/>
<path d="M3.47705 26.4649C5.08661 28.0435 7.05596 29.1944 9.21004 29.8155C9.21004 29.7399 9.21004 29.6614 9.21004 29.5859C7.07274 28.9675 5.11918 27.8235 3.52291 26.2556C3.49711 26.3254 3.48565 26.3952 3.47705 26.4649Z" fill="white"/>
<path d="M0.518799 20.679C0.870421 22.8132 1.85884 24.7868 3.3509 26.334C3.3509 26.2643 3.37096 26.1946 3.38242 26.1249C1.8999 24.5885 0.918343 22.6277 0.570394 20.5076L0.518799 20.679Z" fill="white"/>
<path d="M0.490088 20.4873L0.541683 20.3157C0.439487 19.6332 0.400141 18.9424 0.424156 18.2524C0.40409 18.389 0.38403 18.5257 0.366831 18.6622C0.360566 19.2729 0.401778 19.8832 0.490088 20.4873Z" fill="white"/>
<path d="M35.9946 16.3926C35.1535 18.7109 33.852 20.8294 32.1707 22.6172C32.2194 22.6782 32.2681 22.7393 32.314 22.8032C34.0064 21.0048 35.3167 18.8734 36.1637 16.5409L35.9946 16.3926Z" fill="white"/>
<path d="M9.37622 29.644C9.37622 29.7196 9.37622 29.7981 9.37622 29.8736C11.8524 30.5631 14.4367 30.7605 16.9868 30.4548L16.9352 30.2224C14.4023 30.5266 11.8353 30.3302 9.37622 29.644Z" fill="white"/>
<path d="M1.13223 14.4282L1.08636 14.5619C1.00037 14.8118 0.922981 15.0647 0.851318 15.3175L0.900044 15.178C0.972662 14.9281 1.05006 14.6781 1.13223 14.4282Z" fill="white"/>
<path d="M29.8546 1.83079L29.4475 1.65356C29.9532 1.86719 30.447 2.10868 30.9266 2.37708C31.0613 2.44683 31.1932 2.51955 31.3251 2.5922C30.8505 2.30847 30.3595 2.05418 29.8546 1.83079Z" fill="white"/>
<path d="M17.1875 30.205C17.2047 30.2834 17.2248 30.3618 17.242 30.4374C18.4316 30.2948 19.6092 30.0626 20.7649 29.7428C22.3792 29.299 23.947 28.6966 25.4459 27.944L25.3427 27.7261C23.8537 28.4755 22.2954 29.0741 20.6904 29.5132C19.5415 29.8323 18.3706 30.0637 17.1875 30.205Z" fill="white"/>
<path d="M36.0605 16.2038L36.2297 16.3491C36.8785 14.4765 37.0751 12.4735 36.803 10.508C36.76 10.2174 36.7084 9.92688 36.6424 9.65081L36.4705 9.54907C36.5335 9.82514 36.588 10.1099 36.631 10.3976C36.9011 12.3514 36.7055 14.3424 36.0605 16.2038Z" fill="white"/>
<path d="M0.848553 15.3669C0.831354 15.4163 0.817017 15.4628 0.799818 15.5093C0.713824 15.8347 0.642164 16.1602 0.579102 16.4886C0.613499 16.3404 0.650765 16.198 0.68803 16.0469C0.73676 15.8202 0.77689 15.5936 0.848553 15.3669Z" fill="white"/>
<path d="M25.5547 27.6186C25.5891 27.6884 25.6263 27.7609 25.6607 27.8336C28.0842 26.5949 30.2833 24.9491 32.1648 22.9661L32.0186 22.78C30.1504 24.753 27.9646 26.3894 25.5547 27.6186Z" fill="white"/>
<path d="M1.13232 14.4283L1.23907 14.1377C1.20156 14.2249 1.16694 14.3266 1.13232 14.4283Z" fill="white"/>
<path d="M36.4217 9.36605L36.5937 9.47063C36.0754 7.39437 34.9516 5.52484 33.3689 4.10617L33.3144 4.06843L33.1912 4.01025C34.7767 5.42391 35.9029 7.2911 36.4217 9.36605Z" fill="white"/>
<path d="M33.0714 3.89756L33.0278 3.86792L33.0569 3.89163L33.0714 3.89756Z" fill="white"/>
<path d="M26.9678 3.07742C25.7486 2.03833 24.3018 1.30996 22.7484 0.953125L22.6194 1.00832C24.1487 1.36072 25.5734 2.07689 26.7758 3.09771L26.9678 3.07742Z" fill="white"/>
<path d="M4.02452 14.6666L4.17071 14.5184C4.00773 13.3688 4.08092 12.1973 4.3857 11.0776L4.24524 11.1736C3.93418 12.3099 3.85902 13.4993 4.02452 14.6666Z" fill="white"/>
<path d="M11.2024 2.90892L11.1622 2.88281C9.51858 3.81114 8.04472 5.01926 6.80518 6.45429L6.91123 6.42804C8.13202 5.01426 9.58356 3.82389 11.2024 2.90892Z" fill="white"/>
<path d="M29.1151 6.90475L29.3415 6.93966C28.9761 5.4758 28.1815 4.15862 27.0627 3.16187L26.8706 3.18216C27.9717 4.16539 28.754 5.46296 29.1151 6.90475Z" fill="white"/>
<path d="M28.8684 11.6588L29.092 11.7663C29.5466 10.4526 29.6842 9.04758 29.4933 7.66887C29.4618 7.46254 29.4245 7.26498 29.3786 7.06738L29.1522 7.03247C29.1952 7.22427 29.2325 7.42187 29.264 7.61367C29.4536 8.97471 29.3179 10.362 28.8684 11.6588Z" fill="white"/>
<path d="M6.7077 6.57338C5.59425 7.87131 4.76654 9.39509 4.27979 11.0429L4.42311 10.947C4.90257 9.32401 5.71754 7.82321 6.81376 6.54443L6.7077 6.57338Z" fill="white"/>
<path d="M22.4791 0.973574L22.6081 0.918377C20.8182 0.52058 18.9701 0.470358 17.1618 0.77024L17.113 0.828274C18.8947 0.531838 20.7156 0.581145 22.4791 0.973574Z" fill="white"/>
<path d="M6.11987 18.857C7.24702 19.9626 8.62525 20.7701 10.133 21.2081C10.1502 21.1238 10.1702 21.0424 10.1874 20.961C8.70092 20.5282 7.34301 19.7296 6.23453 18.6362L6.11987 18.857Z" fill="white"/>
<path d="M15.7456 21.3939L15.7714 21.6439C16.6059 21.5436 17.4318 21.3804 18.2423 21.1556C19.3744 20.8451 20.4737 20.4227 21.5245 19.8945L21.4127 19.6677C20.3779 20.1892 19.2948 20.6059 18.1793 20.9116C17.3808 21.1327 16.5674 21.2938 15.7456 21.3939Z" fill="white"/>
<path d="M10.3223 21.0103C10.3051 21.0916 10.2879 21.1759 10.2678 21.2573C12.0048 21.7437 13.8182 21.8848 15.6081 21.6728L15.5823 21.42C13.8193 21.6296 12.033 21.4904 10.3223 21.0103Z" fill="white"/>
<path d="M16.9409 0.854513C16.9553 0.834171 16.9725 0.816752 16.9868 0.799316C16.4075 0.895437 15.8335 1.02147 15.2669 1.17704C13.8871 1.55609 12.5571 2.10142 11.3054 2.80144L11.3427 2.82769C12.5763 2.1386 13.8871 1.602 15.2468 1.2294C15.8048 1.07482 16.3702 0.949687 16.9409 0.854513Z" fill="white"/>
<path d="M21.5618 19.5923L21.6764 19.8161C23.3762 18.9488 24.9183 17.7951 26.237 16.4044L26.0536 16.23C24.7554 17.601 23.2364 18.7381 21.5618 19.5923Z" fill="white"/>
<path d="M4.04761 14.8002C4.29352 16.296 4.98582 17.6795 6.03122 18.7641L6.14874 18.5577C5.11737 17.4899 4.43488 16.1264 4.1938 14.6521C4.1422 14.7015 4.09634 14.7508 4.04761 14.8002Z" fill="white"/>
<path d="M28.8198 11.7896C28.234 13.401 27.3287 14.8737 26.1597 16.1166L26.3431 16.288C27.5307 15.0275 28.4498 13.533 29.0434 11.8971L28.8198 11.7896Z" fill="white"/>
<path d="M13.5757 5.55631L13.4868 5.43726C12.8483 5.79915 12.2753 6.26886 11.7927 6.82626L11.9618 6.87862C12.4216 6.34792 12.9674 5.90066 13.5757 5.55631Z" fill="white"/>
<path d="M10.712 10.02L10.9356 9.91823C10.8721 9.48625 10.8995 9.0455 11.0158 8.625L10.7951 8.66274C10.675 9.10439 10.6467 9.56664 10.712 10.02Z" fill="white"/>
<path d="M10.7178 10.0751C10.8136 10.6569 11.0838 11.1946 11.4917 11.6152L11.678 11.435C11.2908 11.0333 11.0338 10.5213 10.9414 9.96753L10.7178 10.0751Z" fill="white"/>
<path d="M11.5261 11.6501C11.9631 12.0815 12.4989 12.396 13.0855 12.5654C13.1228 12.4899 13.16 12.4144 13.1944 12.3388C12.6359 12.1774 12.1257 11.8778 11.7096 11.467L11.5261 11.6501Z" fill="white"/>
<path d="M20.1945 8.89233C19.9758 9.49833 19.6351 10.0516 19.1941 10.5169L19.3919 10.6534C19.8546 10.1631 20.2127 9.58147 20.4439 8.94469L20.1945 8.89233Z" fill="white"/>
<path d="M19.6356 5.51276C19.1619 5.10887 18.5997 4.82592 17.9959 4.6875L17.8669 4.84146C18.4411 4.97452 18.9757 5.24449 19.4263 5.62897L19.6356 5.51276Z" fill="white"/>
<path d="M20.2117 8.84296L20.4611 8.89233C20.6382 8.38185 20.6913 7.83558 20.6158 7.29986C20.6158 7.21849 20.59 7.14291 20.5729 7.06445L20.3177 7.10518C20.3349 7.17783 20.3493 7.25055 20.3607 7.32611C20.4311 7.83656 20.38 8.3566 20.2117 8.84296Z" fill="white"/>
<path d="M17.8124 4.8297L17.9414 4.67277C17.2431 4.51972 16.5228 4.5001 15.8174 4.61473C15.8174 4.66704 15.8002 4.71929 15.7944 4.77451C16.4644 4.66189 17.1494 4.68061 17.8124 4.8297Z" fill="white"/>
<path d="M11.7526 6.8728C11.3198 7.37955 10.9983 7.97393 10.8096 8.6164L11.0303 8.58149C11.2096 7.97176 11.5155 7.40799 11.9275 6.928L11.7526 6.8728Z" fill="white"/>
<path d="M20.3063 7.06147L20.5614 7.01791C20.4183 6.44895 20.1085 5.93722 19.6728 5.55029L19.4607 5.66083C19.8758 6.03031 20.1706 6.51864 20.3063 7.06147Z" fill="white"/>
<path d="M15.7313 4.7834C15.7313 4.73109 15.7457 4.67877 15.7543 4.62646C15.5292 4.66365 15.3062 4.71306 15.0864 4.7746C14.5493 4.9217 14.0316 5.13338 13.5442 5.40518L13.6302 5.52437C14.094 5.26748 14.5855 5.06569 15.095 4.92288C15.3109 4.86476 15.523 4.81827 15.7313 4.7834Z" fill="white"/>
<path d="M17.4685 11.8244L17.5774 12.0249C18.2386 11.687 18.8385 11.2379 19.3518 10.6968L19.1569 10.5603C18.6685 11.0753 18.0977 11.5027 17.4685 11.8244Z" fill="white"/>
<path d="M15.2842 12.5015C15.2842 12.5771 15.2842 12.6554 15.2842 12.7368C15.6086 12.6973 15.9295 12.6333 16.2445 12.5451C16.6851 12.4261 17.1125 12.2615 17.5201 12.054C17.4857 11.9872 17.4513 11.9204 17.414 11.8535C16.7469 12.1917 16.0275 12.4109 15.287 12.5015H15.2842Z" fill="white"/>
<path d="M13.246 12.3533C13.2087 12.4288 13.1743 12.5045 13.1399 12.58C13.8147 12.77 14.5196 12.8252 15.2152 12.7426C15.2152 12.6642 15.2152 12.5858 15.2152 12.5074C14.5552 12.5862 13.8863 12.5338 13.246 12.3533Z" fill="white"/>
<path d="M41.7075 27.0286C42.7513 23.026 42.6389 18.8038 41.3835 14.8641C41.3899 14.8764 41.3956 14.889 41.4007 14.9019C41.6422 15.4498 41.8341 16.0188 41.974 16.6019L41.8852 16.2387C41.7538 15.7111 41.5783 15.1957 41.3606 14.6984C41.3377 14.6403 41.309 14.5851 41.2832 14.527C41.2316 14.373 41.1772 14.216 41.1198 14.062C41.0625 13.908 41.0252 13.8033 40.9736 13.6755C39.6152 10.1586 37.3681 7.06592 34.4581 4.70762C34.8215 4.9483 35.1664 5.21648 35.49 5.50975L35.2492 5.29464C34.931 5.01274 34.5918 4.7562 34.2345 4.52742C33.321 3.80606 32.3508 3.16172 31.3336 2.60078C31.2018 2.52813 31.0699 2.45555 30.9352 2.38581C29.3867 1.57517 27.745 0.962103 26.0478 0.560763L26.3001 0.61596L26.1711 0.584033L26.0535 0.554945C25.9675 0.534603 25.8787 0.517258 25.7927 0.502728C20.7423 -0.622845 15.4604 0.156145 10.9356 2.69386L10.7608 2.79262C8.73459 3.96058 6.91117 5.45769 5.36319 7.22426C5.27343 7.30459 5.18915 7.39104 5.11093 7.48293L4.96474 7.65136C5.0437 7.56016 5.12793 7.4739 5.21699 7.39283C3.35939 9.55009 1.94706 12.0628 1.06345 14.7827C1.00612 14.9135 0.954523 15.0443 0.905792 15.178L0.857058 15.3175C0.819794 15.4337 0.782531 15.5499 0.750999 15.6691L0.673607 15.9597C0.713738 15.8086 0.756733 15.669 0.805463 15.515C0.822662 15.4685 0.83699 15.4221 0.854189 15.3727C0.891453 15.2652 0.934457 15.1604 0.977455 15.0558C0.874261 15.3842 0.779667 15.7155 0.690805 16.0526C0.653541 16.1979 0.616275 16.3432 0.581877 16.4944C0.198028 18.1368 0.00561288 19.8193 0.00857869 21.5072C0.00781035 22.2254 0.0432084 22.9431 0.114638 23.6576C0.126726 23.9846 0.157354 24.3107 0.206367 24.6341L0.263692 25.0032C0.212095 24.6835 0.174829 24.3638 0.154764 24.0441C0.35921 25.8065 0.779033 27.5363 1.40456 29.1936L1.45615 29.3301C2.76434 32.7235 4.90152 35.7243 7.66712 38.0509C10.4327 40.3775 13.7361 41.9536 17.2671 42.6313C20.7982 43.309 24.4413 43.0662 27.8544 41.9255C31.2675 40.7848 34.3387 38.7836 36.78 36.1098L36.7198 36.1825L36.8688 36.0197L36.9462 35.9268C38.8075 33.8416 40.2478 31.407 41.1858 28.7605C41.2345 28.6211 41.2832 28.47 41.3291 28.3393C41.438 28.0109 41.5383 27.6825 41.6301 27.3483C41.6129 27.4645 41.5928 27.5836 41.5699 27.6999C41.5699 27.7464 41.5498 27.7929 41.5383 27.8394C41.487 28.0645 41.4239 28.2866 41.3491 28.5048L41.4409 28.2317C41.5051 28.0409 41.5597 27.847 41.6043 27.6505C41.6043 27.604 41.6272 27.5574 41.6358 27.508C41.6587 27.3453 41.6845 27.1855 41.7075 27.0286ZM40.2742 30.5158C40.2054 30.6669 40.1366 30.8065 40.0621 30.9605C39.3374 32.4454 38.4437 33.8389 37.3991 35.113C37.4961 34.8371 37.5597 34.5502 37.5883 34.2587C37.5883 34.2238 37.5883 34.189 37.5883 34.1541C37.68 32.9917 37.3533 31.4718 36.5564 29.6382C36.499 29.5132 36.4446 29.3853 36.3844 29.2575C36.3586 29.1993 36.3328 29.1442 36.3041 29.086C35.2016 26.8506 33.8617 24.7439 32.3082 22.8033C32.2624 22.7393 32.2136 22.6783 32.1649 22.6172C30.3774 20.366 28.4297 18.2507 26.3373 16.288L26.1539 16.1166C24.0349 14.1277 21.7727 12.3015 19.3861 10.6533L19.1883 10.5168C17.9938 9.70123 16.7576 8.95036 15.4848 8.26747C16.7453 8.96669 17.969 9.73204 19.151 10.5603L19.3459 10.6968C21.7092 12.3699 23.9491 14.2152 26.0478 16.2182L26.2313 16.3926C28.3105 18.3777 30.2456 20.5124 32.0216 22.78L32.1678 22.966C33.7091 24.9181 35.0409 27.031 36.1407 29.2691C36.1694 29.3243 36.1952 29.3824 36.221 29.4377C36.2783 29.5675 36.3356 29.6953 36.393 29.8212C37.1927 31.6549 37.5224 33.1631 37.4364 34.3197C37.4364 34.3545 37.4364 34.3924 37.4364 34.4244C37.4083 34.7219 37.3438 35.0148 37.2443 35.2962C36.8745 35.735 36.4904 36.168 36.0977 36.569C34.5963 38.0897 32.8771 39.3721 30.9982 40.3729C30.9632 40.0448 30.8871 39.7226 30.7718 39.414C30.7718 39.3878 30.7574 39.3616 30.746 39.3355C30.4593 38.4579 29.9176 37.1018 29.1207 35.2671C29.0662 35.1392 29.0089 35.0114 28.9516 34.8806L28.877 34.7092C27.9827 32.675 26.8877 30.3299 25.6809 27.8249C25.6465 27.7522 25.6092 27.6795 25.5748 27.6098C24.3623 25.0932 23.038 22.4342 21.6965 19.8072L21.5818 19.5834C20.2374 16.968 18.8816 14.3788 17.5974 12.0278L17.4884 11.8273C16.8034 10.5661 16.1383 9.37182 15.5106 8.27044C16.1183 9.38054 16.7632 10.5952 17.4311 11.8564C17.4684 11.9232 17.5028 11.9901 17.5372 12.0569C18.787 14.4369 20.117 17.0349 21.4327 19.6707L21.5445 19.8973C22.8603 22.5359 24.1616 25.2066 25.3627 27.729L25.4659 27.9469C26.6584 30.4606 27.7448 32.8203 28.6362 34.8428C28.662 34.901 28.6878 34.9591 28.7108 35.0172C28.7681 35.148 28.8254 35.2757 28.8799 35.4036C29.6796 37.2344 30.2243 38.5857 30.5253 39.4575L30.5511 39.536C30.6698 39.8422 30.7544 40.161 30.8033 40.4863C28.4407 41.7149 25.8682 42.4744 23.2243 42.7239C22.8159 42.6086 22.4417 42.393 22.135 42.0962L22.0634 42.0294C21.2923 41.3029 20.4868 40.0329 19.6871 38.1992L19.5237 37.8127L19.452 37.6384C18.5305 35.3033 17.7981 32.8959 17.262 30.4403C17.2448 30.3647 17.2247 30.2862 17.2075 30.2077C16.5828 27.3822 16.1101 24.5243 15.7915 21.6467L15.7657 21.3968C15.4471 18.5226 15.2921 15.6321 15.3013 12.7398C15.3013 12.6585 15.3013 12.58 15.3013 12.5044C15.3157 11.0253 15.3844 9.59848 15.5077 8.27044C15.3615 9.6072 15.2727 11.0311 15.2383 12.5102C15.2383 12.5887 15.2383 12.6672 15.2383 12.7456C15.1924 15.64 15.3149 18.5345 15.6052 21.4143L15.631 21.667C15.9195 24.5469 16.3683 27.4082 16.9754 30.2368L17.0269 30.4692C17.5481 32.9259 18.272 35.3337 19.1911 37.6674C19.2141 37.7255 19.237 37.7837 19.2628 37.8418L19.4262 38.2283C20.226 40.062 21.0372 41.3319 21.8226 42.0584L21.8943 42.1223C22.2056 42.4166 22.5821 42.6309 22.9921 42.7471C22.4188 42.7936 21.8226 42.8227 21.2292 42.8227C18.8733 42.8248 16.5339 42.4239 14.3095 41.637C14.235 41.5992 14.1576 41.5586 14.0859 41.515L13.9741 41.4452C12.7501 40.6867 11.6953 39.3965 10.8955 37.5628C10.8411 37.4379 10.7866 37.31 10.735 37.1763L10.6662 37.0049C9.88365 34.9707 9.47661 32.5267 9.41641 29.8764C9.41641 29.8008 9.41641 29.7225 9.41641 29.647C9.39476 26.8237 9.68999 24.0071 10.2964 21.2515C10.3165 21.1701 10.3337 21.0858 10.3509 21.0045C10.9909 18.1015 11.9356 15.2763 13.1686 12.5771C13.203 12.5015 13.2374 12.426 13.2747 12.3505C13.9314 10.9389 14.6812 9.57385 15.5192 8.26463C14.6649 9.56664 13.8988 10.9259 13.226 12.333C13.1916 12.4086 13.1543 12.4841 13.117 12.5596C11.857 15.2447 10.8854 18.0594 10.219 20.9551C10.2018 21.0364 10.1818 21.1178 10.1646 21.2021C9.53325 23.9486 9.2187 26.7601 9.22722 29.5801C9.22722 29.6557 9.22722 29.734 9.22722 29.8096C9.27309 32.454 9.67153 34.8922 10.4541 36.9293L10.5229 37.1036C10.5745 37.2344 10.6289 37.3623 10.6834 37.4902C11.4831 39.3238 12.5437 40.6141 13.7792 41.3783L13.891 41.4452L14.0573 41.5383L13.4639 41.3087C13.3168 41.2506 13.1706 41.1896 13.0253 41.1256C10.5383 40.0531 8.27774 38.5062 6.36646 36.569C5.82844 36.0232 5.32031 35.4478 4.84435 34.8457C4.63 34.4885 4.43851 34.1177 4.27105 33.7356C4.21372 33.6078 4.16213 33.4799 4.11053 33.3491C4.09046 33.2939 4.06753 33.2358 4.04747 33.1777C3.30218 31.1639 3.14739 28.8681 3.50283 26.459C3.50283 26.3893 3.5229 26.3195 3.53436 26.2497C3.98559 23.6515 4.86859 21.1497 6.14574 18.8511L6.2604 18.6419C7.69294 16.0701 9.47413 13.7146 11.5519 11.6443L11.7354 11.4612C12.915 10.3012 14.1788 9.2327 15.5163 8.26463C14.168 9.22077 12.8935 10.2797 11.7039 11.4321L11.5175 11.6123C9.42319 13.6601 7.6244 15.9972 6.1744 18.5547L6.05688 18.761C4.76769 21.0441 3.87197 23.5335 3.40824 26.1219C3.40824 26.1916 3.38531 26.2614 3.37671 26.3312C3.0098 28.7315 3.16172 31.0214 3.90414 33.0352C3.92707 33.0934 3.94714 33.1516 3.97007 33.2068C4.01881 33.3376 4.07326 33.4653 4.12773 33.5932C4.27478 33.9273 4.43936 34.2534 4.62077 34.5697C3.96444 33.7126 3.3732 32.8062 2.85214 31.8584C2.78907 31.7421 2.72601 31.6288 2.66581 31.5126C1.17105 28.6691 0.334857 25.5177 0.220696 22.2977C0.285253 21.7492 0.39358 21.2069 0.544612 20.6761L0.596206 20.5046C1.29186 18.3492 2.48375 16.3929 4.07326 14.7973C4.12199 14.7479 4.16786 14.6984 4.21946 14.649C6.11904 12.7552 8.32596 11.207 10.7436 10.0721L10.9672 9.96466C12.4362 9.27538 13.9575 8.70685 15.5163 8.26463C6.85377 10.6475 0.986048 16.1922 0.209228 21.9461C0.209228 21.795 0.209228 21.6555 0.209228 21.4985C0.210266 20.549 0.272513 19.6006 0.395557 18.6594C0.412756 18.5228 0.432816 18.3862 0.452882 18.2496C0.676917 16.7723 1.05355 15.323 1.57655 13.9255C2.28047 12.829 3.19965 11.8912 4.27678 11.1706L4.41725 11.0747C6.09988 9.95008 8.26694 9.11604 10.8267 8.6598L11.0474 8.62206C12.5268 8.37916 14.0234 8.25962 15.522 8.26463C14.0295 8.24266 12.5376 8.34571 11.0618 8.57268L10.8411 8.60744C8.28987 9.03463 6.12854 9.84249 4.4545 10.9322L4.31118 11.0282C3.26237 11.7176 2.36311 12.6164 1.66827 13.6698C2.64784 11.1597 4.08733 8.86017 5.91069 6.89294C6.17411 6.75154 6.45187 6.63952 6.7391 6.55877L6.84517 6.52969C8.09782 6.20422 9.76898 6.30008 11.7841 6.85803L11.959 6.90755C13.1778 7.26613 14.3688 7.71582 15.522 8.25299C14.381 7.703 13.2016 7.23865 11.9934 6.86385L11.8243 6.81163C9.81772 6.23043 8.17808 6.10835 6.95123 6.41348L6.84517 6.43958C6.57196 6.51522 6.30692 6.61843 6.05401 6.74764C6.16007 6.6343 6.269 6.52092 6.37793 6.4105C7.77719 4.99169 9.36649 3.77973 11.099 2.81007L11.2022 2.86811L11.2424 2.89436C11.7239 3.2082 12.4922 4.05667 13.5356 5.42249L13.6244 5.54168C14.1977 6.29142 14.836 7.19521 15.5392 8.25299C14.8455 7.18552 14.2254 6.27112 13.6789 5.50975L13.5929 5.39056C12.5896 4.00149 11.8501 3.14129 11.3943 2.81291L11.357 2.7868C11.3261 2.76397 11.2935 2.74358 11.2596 2.72579C13.1439 1.6918 15.1744 0.958627 17.2792 0.552107C17.1957 0.622105 17.1189 0.699887 17.0499 0.78453C17.0355 0.801966 17.0183 0.819385 17.004 0.839727C16.4737 1.51682 16.0667 2.78093 15.8173 4.61752C15.8173 4.66983 15.803 4.72215 15.7944 4.77445C15.6542 5.9318 15.5738 7.09579 15.5536 8.26165C15.5924 7.09453 15.6939 5.93041 15.8574 4.77445C15.8574 4.71924 15.8718 4.66699 15.8804 4.61468C16.167 2.77809 16.6084 1.50817 17.1674 0.836889L17.2161 0.778712C17.2912 0.691063 17.3748 0.611287 17.4655 0.540472C18.7204 0.307737 19.9936 0.190961 21.2694 0.191696C22.377 0.19162 23.483 0.279036 24.5773 0.453207C23.9216 0.510309 23.2785 0.670206 22.6711 0.926992L22.5421 0.982189C21.04 1.63894 19.4921 2.87689 18.0044 4.68151L17.8754 4.83845C17.0118 5.91942 16.2353 7.06908 15.5536 8.27626C16.2537 7.07144 17.0484 5.92568 17.9299 4.85008L18.0589 4.69599C19.5781 2.89718 21.1518 1.66513 22.6825 1.01709L22.8115 0.961756C23.4449 0.699036 24.1154 0.540234 24.798 0.491093C27.7479 1.0053 30.5544 2.15583 33.0277 3.86491L33.0707 3.894H33.0564C31.2963 3.10066 29.2181 2.82742 26.9679 3.08024L26.7759 3.10067C24.27 3.45579 21.8497 4.27434 19.6355 5.51557L19.4262 5.63178C18.0455 6.40097 16.7292 7.28349 15.4905 8.27044C16.7428 7.29255 18.0705 6.41796 19.4606 5.65505L19.6727 5.54451C21.9098 4.31808 24.3491 3.51652 26.8705 3.17914L27.0625 3.1587C29.3299 2.92332 31.4225 3.20532 33.1911 4.00737L33.3144 4.06541L33.3688 4.10315C34.3333 4.8012 35.2394 5.57877 36.0777 6.42795C38.0423 8.41576 39.6008 10.7769 40.664 13.3762C39.6291 11.7731 38.2405 10.436 36.608 9.47059L36.436 9.36601C34.2473 8.11333 31.8452 7.29009 29.3557 6.93948L29.1293 6.90457C26.2885 6.50989 23.4056 6.54708 20.5757 7.01497L20.3205 7.05867C18.6866 7.33333 17.0764 7.73743 15.5048 8.26747C17.0817 7.75364 18.6956 7.365 20.332 7.10507L20.5871 7.06434C23.4277 6.62392 26.3171 6.61319 29.1608 7.03242L29.3873 7.06732C31.8831 7.43911 34.2884 8.28083 36.479 9.54905L36.651 9.65079C38.3368 10.6513 39.7619 12.0463 40.8074 13.7192C40.9985 14.2151 41.1724 14.7207 41.3291 15.236C41.3692 15.3639 41.4065 15.4947 41.4437 15.6226C42.3866 18.9914 42.5037 22.5428 41.7848 25.9679C41.7504 24.7341 41.4696 23.52 40.9593 22.3993C40.9048 22.2743 40.8446 22.1466 40.7844 22.0187C40.7586 21.9635 40.7328 21.9082 40.7042 21.853C39.741 19.906 38.196 18.0374 36.2439 16.3316L36.0748 16.1863C33.9491 14.4077 31.6048 12.9162 29.1006 11.7488L28.877 11.6413C26.1919 10.3917 23.3723 9.46342 20.4753 8.87492L20.226 8.82539C18.6676 8.51982 17.09 8.32561 15.5048 8.24419C17.0853 8.3404 18.6572 8.54929 20.2088 8.8691L20.4581 8.92131C23.3493 9.53787 26.1601 10.4926 28.834 11.7663L29.0576 11.8738C31.5548 13.0648 33.891 14.5756 36.0089 16.3693L36.178 16.5176C38.1272 18.2263 39.6694 20.1036 40.6325 22.039L40.7128 22.2046C40.773 22.3325 40.8332 22.4603 40.8876 22.5853C41.4143 23.7395 41.6965 24.9928 41.7161 26.2643C41.3822 27.7295 40.896 29.1546 40.2656 30.5158H40.2742Z" fill="white"/>
</g>
<defs>
<clipPath id="clip0_347_1210">
<rect width="247" height="43" fill="white"/>
</clipPath>
</defs>
</svg>
